<svg width="40" height="40" viewBox="0 0 40 40" fill="none" xmlns="http://www.w3.org/2000/svg">
<path d="M13.15 3.5H27.85C33.45 3.5 38 8.05 38 13.65V28.35C38 31.0419 36.9306 33.6236 35.0271 35.5271C33.1236 37.4306 30.5419 38.5 27.85 38.5H13.15C7.55 38.5 3 33.95 3 28.35V13.65C3 10.9581 4.06937 8.37636 5.97287 6.47287C7.87636 4.56937 10.4581 3.5 13.15 3.5ZM12.8 7C11.1291 7 9.52671 7.66375 8.34523 8.84523C7.16375 10.0267 6.5 11.6291 6.5 13.3V28.7C6.5 32.1825 9.3175 35 12.8 35H28.2C29.8709 35 31.4733 34.3363 32.6548 33.1548C33.8363 31.9733 34.5 30.3709 34.5 28.7V13.3C34.5 9.8175 31.6825 7 28.2 7H12.8ZM29.6875 9.625C30.2677 9.625 30.8241 9.85547 31.2343 10.2657C31.6445 10.6759 31.875 11.2323 31.875 11.8125C31.875 12.3927 31.6445 12.9491 31.2343 13.3593C30.8241 13.7695 30.2677 14 29.6875 14C29.1073 14 28.5509 13.7695 28.1407 13.3593C27.7305 12.9491 27.5 12.3927 27.5 11.8125C27.5 11.2323 27.7305 10.6759 28.1407 10.2657C28.5509 9.85547 29.1073 9.625 29.6875 9.625ZM20.5 12.25C22.8206 12.25 25.0462 13.1719 26.6872 14.8128C28.3281 16.4538 29.25 18.6794 29.25 21C29.25 23.3206 28.3281 25.5462 26.6872 27.1872C25.0462 28.8281 22.8206 29.75 20.5 29.75C18.1794 29.75 15.9538 28.8281 14.3128 27.1872C12.6719 25.5462 11.75 23.3206 11.75 21C11.75 18.6794 12.6719 16.4538 14.3128 14.8128C15.9538 13.1719 18.1794 12.25 20.5 12.25ZM20.5 15.75C19.1076 15.75 17.7723 16.3031 16.7877 17.2877C15.8031 18.2723 15.25 19.6076 15.25 21C15.25 22.3924 15.8031 23.7277 16.7877 24.7123C17.7723 25.6969 19.1076 26.25 20.5 26.25C21.8924 26.25 23.2277 25.6969 24.2123 24.7123C25.1969 23.7277 25.75 22.3924 25.75 21C25.75 19.6076 25.1969 18.2723 24.2123 17.2877C23.2277 16.3031 21.8924 15.75 20.5 15.75Z" fill="#493222"/>
</svg>
