<svg width="234" height="78" viewBox="0 0 234 78" fill="none" xmlns="http://www.w3.org/2000/svg">
<path d="M103.022 24.5856C103.194 24.5544 103.412 24.5076 103.631 24.5076C103.88 24.5076 104.099 24.5388 104.302 24.5856C104.473 24.6168 104.692 24.6636 104.941 24.6636C105.05 24.6636 105.191 24.6636 105.331 24.6324C105.44 24.6012 105.581 24.6012 105.69 24.6012C105.908 24.6012 106.111 24.6324 106.33 24.7104C106.501 24.7884 106.72 24.8508 106.938 24.882C107.188 24.9132 107.468 24.96 107.749 24.9912C107.999 25.0224 108.28 25.1004 108.529 25.1316C108.701 25.1628 108.857 25.2408 109.028 25.272C109.169 25.35 109.309 25.4124 109.496 25.4436C109.606 25.4748 109.746 25.5216 109.964 25.5528C110.183 25.584 110.386 25.662 110.573 25.6932C110.744 25.7712 110.932 25.8336 111.103 25.9428C111.244 26.052 111.322 26.1924 111.322 26.3328C111.322 26.442 111.29 26.5824 111.181 26.8008C111.072 27.0504 110.963 27.2688 110.822 27.4716C110.682 27.7212 110.542 27.8928 110.401 28.08C110.23 28.2516 110.074 28.3296 109.98 28.3296C109.886 28.3296 109.762 28.2984 109.652 28.1892C109.543 28.1112 109.434 28.08 109.294 28.08C109.184 28.08 109.075 28.2204 108.966 28.47C108.826 28.7508 108.748 28.938 108.748 29.0472C108.638 29.2188 108.576 29.406 108.498 29.5776C108.42 29.7492 108.326 29.9676 108.217 30.1548C107.89 30.6228 107.609 31.122 107.328 31.5744C107.047 32.0268 106.72 32.5416 106.408 32.994C106.298 33.1032 106.236 33.2436 106.127 33.384C106.018 33.5556 105.955 33.7116 105.955 33.852C105.955 33.9612 106.033 34.1016 106.174 34.242C106.283 34.3824 106.454 34.5228 106.642 34.632C106.813 34.7412 106.969 34.8504 107.141 34.9128C107.312 35.022 107.422 35.0532 107.531 35.0532C107.64 35.1624 107.78 35.2716 107.952 35.334C108.092 35.412 108.233 35.4744 108.342 35.5836C108.592 35.7552 108.81 35.9424 109.013 36.114C109.231 36.2856 109.434 36.4728 109.684 36.6444C109.855 36.7848 110.042 36.9252 110.214 37.0344C110.386 37.1436 110.542 37.284 110.713 37.4556C110.963 37.5648 111.212 37.7052 111.431 37.9236C111.649 38.142 111.852 38.3448 112.039 38.532C112.258 38.7816 112.507 39 112.788 39.1716C113.038 39.39 113.256 39.6396 113.428 39.8892C113.459 39.9672 113.537 40.1076 113.646 40.3104C113.755 40.5288 113.896 40.7316 114.005 40.95C114.114 41.1996 114.223 41.418 114.332 41.5896C114.442 41.808 114.473 41.9484 114.473 41.9796C114.504 42.0888 114.504 42.2292 114.504 42.3384V43.3992C114.504 43.3992 114.504 43.5396 114.473 43.5708C114.442 43.602 114.442 43.68 114.442 43.7112C114.442 43.8516 114.473 43.992 114.52 44.1324C114.566 44.2728 114.551 44.4132 114.551 44.5536C114.551 44.7252 114.52 44.8344 114.41 44.8812C114.301 44.9124 114.13 44.9592 113.942 44.9592C113.833 44.9592 113.693 44.9592 113.584 44.928H113.194C112.944 44.928 112.694 44.9592 112.476 45.0684C112.226 45.1776 112.055 45.24 111.946 45.24C111.774 45.24 111.696 45.0996 111.665 44.8188C111.634 44.5692 111.587 44.3508 111.587 44.2572C111.587 44.1636 111.587 44.1168 111.618 44.0856C111.618 44.0076 111.618 43.9452 111.649 43.8672C111.68 43.836 111.68 43.758 111.68 43.6956C111.68 43.6332 111.649 43.446 111.571 43.1964C111.493 42.9468 111.431 42.6972 111.322 42.4164C111.212 42.1356 111.15 41.886 111.041 41.6364C110.932 41.3868 110.869 41.2464 110.822 41.1684C110.651 40.9188 110.464 40.7004 110.214 40.5288C109.964 40.3572 109.746 40.1388 109.496 39.9672C109.216 39.7488 108.857 39.4368 108.389 39.0468C107.921 38.6568 107.422 38.2356 106.922 37.83C106.392 37.44 105.893 37.1124 105.394 36.8004C104.894 36.5196 104.473 36.3792 104.114 36.3792C103.943 36.3792 103.756 36.4572 103.646 36.5508C103.537 36.66 103.397 36.8004 103.288 36.972C103.178 37.1124 103.038 37.2996 102.788 37.5336C102.539 37.7832 102.289 38.0328 102.008 38.2824C101.681 38.532 101.4 38.7816 101.15 39.0312C100.87 39.2808 100.651 39.4524 100.48 39.5616C100.308 39.6708 100.121 39.8112 99.9491 39.9516C99.7775 40.092 99.5903 40.2324 99.4499 40.3728C99.4187 40.4508 99.3407 40.5132 99.3095 40.5912C99.2315 40.6692 99.1691 40.7316 99.0599 40.7628C98.8883 40.872 98.7011 40.9344 98.5295 40.9812C98.3579 41.0592 98.2019 41.1528 98.0303 41.262C97.7807 41.4336 97.5623 41.6208 97.3907 41.7924C97.2191 41.964 97.0007 42.1512 96.7511 42.2916C96.6419 42.3696 96.5327 42.432 96.4235 42.4632C96.3143 42.4944 96.1739 42.5724 96.0647 42.6036C95.8931 42.7128 95.7059 42.822 95.5343 42.9312C95.3627 43.0404 95.1443 43.1028 94.9571 43.212C94.8479 43.2432 94.7387 43.29 94.6295 43.3212C94.5203 43.3524 94.4111 43.4304 94.3019 43.4616C94.2707 43.4616 94.1615 43.4928 94.0523 43.5396C93.9431 43.6176 93.8027 43.68 93.6935 43.758C93.5843 43.8672 93.4439 43.9296 93.3347 44.0076C93.2255 44.1168 93.1163 44.148 93.0539 44.1792C92.4455 44.538 91.8371 44.8188 91.1975 44.9904C90.5579 45.162 89.9183 45.3804 89.2475 45.5676C88.9979 45.6456 88.7483 45.7392 88.4987 45.8952C88.2179 46.0668 87.9683 46.1448 87.7187 46.1448C87.4691 46.1448 87.2975 46.0044 87.1883 45.7548C87.0791 45.5832 86.9387 45.2868 86.7671 44.9436C86.5955 44.616 86.4863 44.3352 86.4863 44.1324C86.4863 43.992 86.5643 43.8828 86.7047 43.7736C86.8451 43.6644 87.0323 43.602 87.2039 43.524C87.3755 43.446 87.5627 43.3836 87.7343 43.3524C87.9059 43.3212 88.0931 43.2432 88.2023 43.212C88.3115 43.1808 88.4207 43.134 88.5299 43.134C88.6391 43.1652 88.7483 43.134 88.8575 43.1028C88.8887 43.0716 88.9979 43.0248 89.1383 42.9624C89.2475 42.8844 89.3879 42.822 89.5283 42.744C89.6375 42.666 89.7779 42.6036 89.8871 42.5256C89.9963 42.4476 90.0275 42.4164 90.0587 42.3852C90.2303 42.276 90.4175 42.2136 90.5891 42.1668C90.7607 42.1356 90.9791 42.0888 91.1507 42.0576C91.2599 42.0264 91.4003 41.9484 91.5095 41.9172C91.6187 41.886 91.7279 41.808 91.8371 41.7768C92.2271 41.6052 92.6171 41.3868 92.9759 41.1372C93.3347 40.9188 93.7247 40.716 94.1147 40.5288C94.2863 40.4196 94.5047 40.2792 94.6763 40.17C94.8479 40.0608 95.0663 39.9204 95.2535 39.8112C95.3627 39.78 95.4719 39.702 95.5343 39.6396C95.5655 39.5616 95.6435 39.4992 95.7527 39.4212C95.9243 39.2808 96.1427 39.1716 96.3611 39.0624C96.5327 38.9532 96.7511 38.8908 96.9695 38.7816C97.0787 38.7504 97.1411 38.6724 97.2191 38.61C97.2971 38.5476 97.3595 38.4696 97.4375 38.4384C97.5155 38.3604 97.5779 38.298 97.6871 38.2668C97.7651 38.2356 97.8275 38.1888 97.9367 38.1576C98.0459 38.1264 98.1083 38.0484 98.1863 37.986C98.2175 37.908 98.2955 37.8456 98.4047 37.8144C98.5763 37.7052 98.6855 37.5648 98.7947 37.4244C98.8727 37.284 98.9663 37.1436 99.0755 37.0344C99.3251 36.7536 99.6059 36.504 99.9335 36.2856C100.214 36.0672 100.511 35.8176 100.745 35.5368C100.854 35.4276 100.963 35.2872 101.072 35.1156C101.182 34.9752 101.291 34.8348 101.4 34.7256C101.572 34.554 101.759 34.3668 101.93 34.2264C102.102 34.1172 102.289 33.9456 102.43 33.7584C102.539 33.5868 102.648 33.4308 102.757 33.2904C102.866 33.15 102.929 33.0096 103.038 32.8224C103.116 32.7132 103.21 32.604 103.319 32.5416C103.428 32.4636 103.49 32.37 103.568 32.2608C103.74 32.0112 103.896 31.7616 104.036 31.4808C104.146 31.2312 104.317 30.9816 104.504 30.732C104.614 30.5604 104.785 30.342 105.004 30.0144C105.175 29.7336 105.394 29.406 105.565 29.0472C105.737 28.7196 105.924 28.4076 106.064 28.08C106.174 27.7524 106.236 27.5184 106.236 27.3C106.236 27.1908 106.205 27.1596 106.096 27.1596C106.064 27.1908 105.955 27.1908 105.815 27.1908C105.674 27.1908 105.534 27.1908 105.425 27.1596C105.284 27.1284 105.144 27.1284 105.004 27.1284C104.972 27.0972 104.863 27.0972 104.723 27.0972C104.551 27.0972 104.333 27.0972 104.161 27.1284C103.99 27.1596 103.771 27.1596 103.584 27.1596H102.523C102.133 27.1908 101.774 27.1908 101.416 27.1908C100.448 27.1908 99.4967 27.1908 98.5295 27.1596H95.6435C95.5343 27.1596 95.3939 27.1596 95.2847 27.1908C95.1755 27.222 95.0351 27.2688 94.9259 27.2688C94.7075 27.2688 94.5047 27.2376 94.3175 27.1908C94.0991 27.1596 93.8963 27.1596 93.6779 27.1596C93.5687 27.1596 93.4283 27.1596 93.3191 27.1908C93.2099 27.222 93.0695 27.222 92.9603 27.222H92.7107C92.5703 27.2532 92.4611 27.222 92.4299 27.1908C92.1023 27.1908 91.9307 27.0504 91.9307 26.8008C91.9307 26.6916 91.9307 26.5824 91.9619 26.4732C91.9931 26.364 91.9931 26.2548 91.9931 26.1456V25.2876C91.9931 25.038 92.1023 24.8664 92.2739 24.7572C92.4455 24.6792 92.6327 24.648 92.8823 24.648H94.5203C94.6607 24.648 94.8011 24.6792 94.9103 24.726C95.0195 24.7572 95.1599 24.804 95.3003 24.804C95.4719 24.804 95.6903 24.804 95.8775 24.7728C96.0491 24.7416 96.2363 24.7416 96.4079 24.7416H97.4375C97.7963 24.7416 98.1551 24.7104 98.4671 24.6636C98.7947 24.5856 99.1067 24.5544 99.4343 24.5544C99.6839 24.5544 99.9023 24.5856 100.152 24.6324C100.37 24.6636 100.573 24.7104 100.823 24.7104H102.43C102.648 24.7104 102.851 24.6792 103.038 24.6012L103.022 24.5856Z" fill="#231815"/>
<path d="M144.706 24.7416C144.706 24.7416 144.815 24.8196 144.924 24.8196C145.174 24.8196 145.392 24.8196 145.595 24.7884C145.813 24.7572 146.016 24.7572 146.266 24.7572C146.547 24.7572 146.827 24.7884 147.155 24.8352C147.436 24.8664 147.717 24.9132 148.013 24.9132H148.731C148.98 24.9444 149.23 24.9912 149.448 25.0224C149.62 25.0536 149.916 25.1316 150.228 25.2408C150.556 25.35 150.837 25.4592 151.149 25.5996C151.461 25.74 151.726 25.9272 151.96 26.0988C152.178 26.2704 152.287 26.4888 152.287 26.7072C152.287 26.8164 152.256 26.9256 152.178 27.0972C152.1 27.2688 152.038 27.4248 151.929 27.5964C151.819 27.768 151.679 27.924 151.57 28.0176C151.429 28.1268 151.32 28.1892 151.211 28.1892C151.102 28.1892 151.039 28.158 150.993 28.08C150.946 28.002 150.852 27.9708 150.743 27.9708H150.665C150.665 27.9708 150.634 28.002 150.587 28.002C150.556 28.0332 150.478 28.1424 150.369 28.3296C150.259 28.5168 150.15 28.7196 150.041 28.938C149.932 29.1876 149.823 29.406 149.713 29.5776C149.604 29.796 149.573 29.9052 149.573 29.9364V30.0456C149.573 30.0456 149.542 30.1548 149.542 30.186C149.511 30.2172 149.511 30.2952 149.511 30.4044C149.479 30.6228 149.433 30.8256 149.339 31.044C149.23 31.2936 149.121 31.512 149.011 31.6836C148.933 31.7928 148.871 31.902 148.84 32.0112C148.762 32.1204 148.699 32.2296 148.621 32.3388C148.512 32.448 148.45 32.5572 148.341 32.5884C148.231 32.6196 148.122 32.7288 148.091 32.838C147.951 33.1656 147.841 33.4776 147.732 33.8052C147.623 34.1328 147.483 34.4448 147.264 34.7256C146.937 35.1936 146.593 35.646 146.235 36.114C145.845 36.582 145.455 37.0032 145.065 37.3932C144.893 37.5648 144.706 37.8144 144.534 38.064C144.363 38.3136 144.175 38.5632 143.973 38.7348C143.723 38.9844 143.473 39.2028 143.224 39.3744C142.974 39.5928 142.693 39.7956 142.444 40.014C142.116 40.2636 141.867 40.5444 141.617 40.8252C141.367 41.106 141.055 41.3556 140.728 41.574C140.587 41.6832 140.447 41.7924 140.26 41.8548C140.088 41.9328 139.932 42.0264 139.792 42.1356C139.62 42.2448 139.433 42.3852 139.293 42.5568C139.121 42.7284 138.934 42.8844 138.762 42.978C138.622 43.0872 138.481 43.1496 138.294 43.2276C138.123 43.3056 137.967 43.368 137.826 43.4772C137.577 43.6176 137.358 43.758 137.187 43.8984C136.968 44.07 136.765 44.226 136.516 44.3196C136.407 44.3508 136.344 44.4288 136.297 44.4912C136.219 44.5692 136.157 44.6316 136.048 44.6628C135.798 44.8344 135.549 44.9436 135.268 44.9904C134.94 45.0216 134.691 45.1308 134.441 45.318C134.332 45.396 134.223 45.4584 134.16 45.5364C134.051 45.6456 133.942 45.708 133.833 45.786C133.255 46.1136 132.663 46.3944 132.054 46.566C131.883 46.5972 131.727 46.6752 131.586 46.7844C131.446 46.8936 131.305 46.956 131.165 47.034C131.025 47.112 130.884 47.1432 130.744 47.1744C130.572 47.2056 130.416 47.2524 130.276 47.3148C129.948 47.4864 129.558 47.6736 129.137 47.8452C128.669 48.0168 128.279 48.0948 127.889 48.0948C127.639 48.0948 127.421 48.0636 127.281 47.9544C127.109 47.8452 127 47.736 126.891 47.5644C126.781 47.3928 126.672 47.2056 126.61 47.034C126.532 46.8624 126.469 46.644 126.36 46.4568C126.329 46.3476 126.282 46.2852 126.251 46.2072C126.22 46.1292 126.22 46.0668 126.22 45.9576C126.22 45.708 126.36 45.5676 126.688 45.4584C127.015 45.3492 127.218 45.2868 127.359 45.2088C127.889 45.2088 128.419 45.0684 128.965 44.7408C129.496 44.4132 129.995 44.1636 130.463 43.9608C130.791 43.8204 131.181 43.68 131.633 43.5396C132.054 43.3992 132.413 43.2588 132.663 43.1184C133.053 42.9 133.443 42.6972 133.833 42.51C134.223 42.3384 134.659 42.1824 135.049 42.0108C135.221 41.9328 135.408 41.8392 135.517 41.73C135.627 41.6208 135.767 41.5584 135.939 41.4492C136.188 41.3088 136.438 41.1684 136.687 41.028C136.937 40.9188 137.155 40.7472 137.405 40.56C137.623 40.3884 137.826 40.2012 138.013 40.0296C138.185 39.858 138.435 39.702 138.684 39.6084C138.793 39.6084 138.965 39.468 139.183 39.2184C139.355 38.9688 139.542 38.8284 139.683 38.7972C139.761 38.7192 139.854 38.6568 139.963 38.6256C140.073 38.5944 140.135 38.5164 140.244 38.454C140.416 38.3136 140.572 38.1732 140.712 37.986C140.821 37.8144 140.962 37.6584 141.102 37.518C141.274 37.3464 141.523 37.128 141.851 36.8004C142.179 36.4728 142.491 36.1608 142.818 35.802C143.146 35.4744 143.427 35.1312 143.707 34.8036C143.957 34.476 144.129 34.242 144.207 34.0548C144.285 33.8832 144.425 33.6648 144.675 33.4152C144.924 33.1968 145.096 32.994 145.205 32.8068C145.423 32.448 145.595 32.058 145.704 31.668C145.813 31.278 145.985 30.888 146.172 30.498C146.313 30.1704 146.453 29.9208 146.593 29.718C146.703 29.5464 146.812 29.328 146.921 29.1564C146.999 28.9848 147.061 28.7352 147.093 28.4856C147.124 28.236 147.171 27.9552 147.171 27.5652C147.171 27.3936 147.139 27.2844 147.061 27.2376C146.952 27.2064 146.843 27.2064 146.734 27.2064C146.484 27.2064 146.266 27.2064 146.063 27.2376C145.813 27.2688 145.595 27.3156 145.345 27.3156C144.815 27.3156 144.285 27.2844 143.739 27.2376C143.208 27.2064 142.709 27.1596 142.179 27.1596H141.289C141.118 27.1908 140.931 27.1908 140.79 27.1908C140.65 27.222 140.541 27.222 140.463 27.2688C140.353 27.3 140.291 27.378 140.244 27.4404C140.166 27.5184 140.104 27.5808 140.026 27.6588C139.854 27.8304 139.745 28.0176 139.667 28.1892C139.558 28.3608 139.449 28.5168 139.339 28.6572C139.23 28.7976 139.09 28.938 138.949 29.0472C138.778 29.1564 138.622 29.2968 138.481 29.4372C138.201 29.7648 137.904 30.0456 137.655 30.3264C137.374 30.654 137.093 30.9348 136.797 31.2156C136.625 31.3872 136.407 31.5432 136.157 31.6368C135.907 31.746 135.689 31.8864 135.517 32.058C135.268 32.3076 134.956 32.6352 134.55 32.9472C134.145 33.2592 133.77 33.5556 133.411 33.7272C133.302 33.7584 133.24 33.8364 133.162 33.8676C133.053 33.8988 132.99 33.9768 132.881 34.0392C132.741 34.1484 132.631 34.1796 132.553 34.2108C132.195 34.32 131.836 34.4916 131.493 34.6788C131.103 34.8972 130.744 35.1 130.432 35.3184C130.323 35.3964 130.182 35.4276 130.073 35.4588C129.964 35.49 129.823 35.568 129.714 35.6304C129.543 35.7396 129.324 35.88 129.153 36.0204C128.934 36.192 128.731 36.27 128.544 36.27C128.357 36.27 128.185 36.192 128.045 36.0516C127.873 35.9424 127.717 35.7708 127.624 35.5836C127.515 35.412 127.405 35.1936 127.343 34.9752C127.265 34.7568 127.234 34.5852 127.234 34.4448C127.234 34.2732 127.312 34.1172 127.405 34.0236C127.515 33.9144 127.624 33.852 127.795 33.7428C127.905 33.6648 128.045 33.6024 128.185 33.5244C128.295 33.4932 128.435 33.4152 128.544 33.384C128.685 33.3528 128.825 33.2436 128.934 33.1344C129.043 33.0252 129.153 32.9628 129.293 32.916C129.543 32.8068 129.761 32.7444 129.933 32.6352C130.104 32.5572 130.323 32.4636 130.541 32.3544C130.713 32.2452 130.9 32.1048 131.04 31.9644C131.181 31.8552 131.368 31.7148 131.539 31.6056C131.867 31.3872 132.288 31.1376 132.756 30.888C133.224 30.6384 133.583 30.3576 133.817 30.108C134.238 29.6868 134.706 29.25 135.174 28.86C135.424 28.6104 135.673 28.3608 135.892 28.1112C136.063 27.8616 136.282 27.5808 136.531 27.3312C136.953 26.832 137.311 26.4108 137.561 26.052C137.811 25.7244 138.06 25.3812 138.279 25.0224C138.45 24.6948 138.637 24.3048 138.809 23.8836C138.949 23.4936 139.137 22.9632 139.339 22.3548C139.371 22.1832 139.449 21.9648 139.511 21.7776C139.589 21.606 139.62 21.4188 139.62 21.2472V20.8884C139.589 20.7792 139.589 20.6388 139.589 20.5296C139.589 20.358 139.62 20.1396 139.667 19.9524C139.698 19.7808 139.839 19.7028 140.088 19.7028C140.166 19.6716 140.26 19.6248 140.416 19.6248C140.525 19.656 140.634 19.656 140.697 19.656C140.868 19.656 141.118 19.6872 141.523 19.734C141.882 19.7652 142.132 19.8744 142.241 19.9836C142.319 20.0616 142.35 20.1552 142.381 20.2644V20.6232C142.381 21.1536 142.303 21.7308 142.21 22.2612C142.069 22.7916 141.991 23.3688 141.991 23.8992C141.991 24.2268 142.069 24.4296 142.241 24.5076C142.413 24.6168 142.631 24.648 142.912 24.648H144.378C144.487 24.648 144.519 24.648 144.55 24.6792L144.659 24.7104L144.706 24.7416ZM150.883 23.0256C150.852 23.1348 150.774 23.1972 150.665 23.244C150.556 23.2752 150.447 23.322 150.306 23.2752C150.166 23.244 149.979 23.244 149.776 23.244H149.386C149.386 23.244 149.277 23.244 149.245 23.2752C149.214 23.2752 149.136 23.2752 149.105 23.3064C149.074 23.3376 148.996 23.3376 148.965 23.3376C148.855 23.3376 148.824 23.3064 148.824 23.2284C148.824 22.9788 148.824 22.698 148.793 22.4484C148.762 22.1988 148.715 21.9492 148.715 21.6996V21.138C148.684 20.9664 148.715 20.748 148.746 20.5608C148.777 20.4204 148.824 20.3112 148.824 20.202C148.855 20.1708 148.855 20.0616 148.855 19.9524V18.8136C148.855 18.6732 148.855 18.5328 148.824 18.3456C148.793 18.2052 148.793 18.0648 148.793 17.8776C148.793 17.7996 148.793 17.706 148.824 17.55C148.855 17.4408 148.902 17.3784 148.996 17.3784C149.136 17.3784 149.277 17.4096 149.386 17.4876H149.885C149.994 17.4876 150.103 17.4876 150.213 17.4564C150.322 17.4252 150.431 17.4252 150.54 17.4252C150.712 17.4252 150.821 17.5032 150.821 17.6748V17.784C150.743 17.8932 150.712 18.0336 150.712 18.1428V18.5328C150.712 18.6732 150.743 18.8604 150.79 19.032C150.821 19.2504 150.868 19.4532 150.868 19.6716C150.868 19.9992 150.868 20.28 150.837 20.5608C150.805 20.8416 150.805 21.138 150.805 21.45C150.805 21.6216 150.837 21.8088 150.883 21.9492C150.93 22.0896 150.961 22.2768 150.961 22.4484C150.961 22.698 150.961 22.9164 150.93 23.0256H150.883ZM154.908 23.166C154.627 23.2752 154.269 23.3376 153.847 23.3376C153.629 23.3376 153.457 23.3064 153.348 23.2284C153.239 23.1972 153.177 23.01 153.177 22.7604C153.177 22.62 153.177 22.4796 153.208 22.2924V21.8712C153.208 21.6996 153.177 21.5124 153.13 21.3408C153.099 21.1692 153.052 20.982 153.052 20.8104C153.052 20.4204 153.083 19.9992 153.161 19.5936C153.192 19.3128 153.239 19.0164 153.27 18.7356V17.8776C153.27 17.706 153.27 17.5968 153.301 17.5188C153.333 17.4876 153.379 17.4408 153.442 17.4096C153.473 17.3784 153.551 17.3784 153.582 17.3784H154.612C154.783 17.4096 155.002 17.4096 155.189 17.4096C155.189 17.5188 155.189 17.5812 155.158 17.6592C155.127 17.7372 155.08 17.8308 155.08 17.94C155.08 18.1116 155.111 18.2988 155.158 18.4704C155.189 18.642 155.236 18.8292 155.236 19.0008V19.422C155.205 19.5624 155.205 19.7028 155.205 19.8432C155.205 20.0148 155.205 20.2332 155.236 20.4516C155.267 20.67 155.267 20.8728 155.267 21.06C155.267 21.1692 155.267 21.3096 155.236 21.4188C155.205 21.528 155.205 21.6684 155.205 21.7776C155.205 21.8868 155.236 21.9492 155.283 22.0272C155.329 22.1052 155.314 22.1676 155.314 22.2768C155.314 22.7448 155.173 23.0256 154.924 23.1348L154.908 23.166Z" fill="#231815"/>
<path d="M168.339 46.1916V45.5208C168.339 45.4116 168.339 45.3024 168.371 45.1932C168.402 45.1152 168.402 45.0216 168.402 44.9124V37.9392C168.402 37.9392 168.402 37.7988 168.371 37.7208C168.339 37.6428 168.339 37.5804 168.339 37.5024C168.339 36.9252 168.339 36.3636 168.371 35.7552C168.402 35.178 168.402 34.6164 168.402 34.0392C168.402 33.8988 168.402 33.7584 168.371 33.618C168.339 33.5088 168.293 33.3684 168.293 33.2592C168.293 32.838 168.324 32.4012 168.371 31.98C168.417 31.5588 168.402 31.122 168.402 30.7008V30.3732C168.371 30.2328 168.371 30.0924 168.371 29.9052C168.339 29.7648 168.339 29.6244 168.293 29.5152C168.261 29.406 168.183 29.3436 168.152 29.3436C168.074 29.3436 168.012 29.3748 167.981 29.4216C167.731 29.5932 167.45 29.7492 167.201 29.9208C166.92 30.0924 166.639 30.2796 166.389 30.4512C165.999 30.7008 165.578 30.9504 165.141 31.1688L163.862 31.8084C163.862 31.8084 163.722 31.9176 163.644 31.98C163.535 32.058 163.472 32.0892 163.363 32.0892C163.254 32.0892 163.145 31.98 162.973 31.8084C162.801 31.6368 162.645 31.4496 162.505 31.2C162.333 30.9504 162.177 30.732 162.084 30.4824C161.975 30.2328 161.912 30.0924 161.912 29.9832C161.912 29.8428 161.99 29.7336 162.131 29.6556C162.209 29.6244 162.302 29.5776 162.458 29.484C162.599 29.406 162.739 29.3436 162.926 29.2344C163.098 29.1564 163.254 29.094 163.394 29.016C163.535 28.9848 163.644 28.938 163.722 28.938C163.831 28.9068 163.94 28.8288 164.049 28.7196C164.159 28.6104 164.299 28.548 164.471 28.5012C164.58 28.47 164.689 28.392 164.798 28.2828C164.907 28.2048 165.017 28.1424 165.126 28.1112C165.297 28.0332 165.485 27.9708 165.625 27.8616C165.734 27.7524 165.875 27.6432 166.046 27.534C166.124 27.5028 166.187 27.4248 166.296 27.3936C166.374 27.3624 166.436 27.2844 166.514 27.2532C166.904 27.0036 167.341 26.754 167.731 26.4732C168.121 26.1924 168.558 25.896 168.948 25.662C169.416 25.3344 169.915 24.9444 170.414 24.492C170.882 24.024 171.335 23.6028 171.725 23.2128C171.803 23.1036 171.943 22.9632 172.146 22.7916C172.364 22.62 172.505 22.464 172.536 22.4328C172.645 22.3548 172.785 22.2612 172.926 22.074C173.035 21.9336 173.144 21.7932 173.207 21.684C173.238 21.6528 173.238 21.606 173.285 21.5748C173.316 21.5748 173.363 21.5436 173.394 21.4968C173.534 21.3876 173.675 21.216 173.784 20.9976C173.893 20.826 174.033 20.6388 174.143 20.4984C174.252 20.3268 174.392 20.1708 174.564 20.0304C174.704 19.9212 174.845 19.7496 174.954 19.5624C175.063 19.422 175.203 19.2036 175.375 18.8916C175.547 18.5796 175.703 18.3612 175.734 18.252C175.952 18.0336 176.093 17.8932 176.155 17.784C176.186 17.6748 176.405 17.6436 176.732 17.6436C176.841 17.6436 176.904 17.6436 176.982 17.6124C177.153 17.6124 177.372 17.6124 177.59 17.5812H178.23C178.401 17.5812 178.62 17.5812 178.869 17.6124C179.119 17.6436 179.291 17.7528 179.4 17.862C179.509 17.9712 179.618 18.1116 179.727 18.252C179.837 18.4236 179.946 18.5796 180.055 18.6732C180.195 18.8136 180.336 18.954 180.445 19.0944C180.554 19.2348 180.695 19.3752 180.835 19.5156C181.443 20.1864 182.114 20.904 182.832 21.5748C183.549 22.2456 184.283 22.854 185.031 23.3844C185.141 23.4624 185.281 23.556 185.421 23.6652C185.531 23.8056 185.64 23.9148 185.749 23.946C185.78 24.024 185.889 24.0864 186.03 24.1644C186.17 24.2736 186.279 24.336 186.389 24.3828C186.779 24.6636 187.215 24.9444 187.605 25.272C187.995 25.5996 188.432 25.8024 188.885 25.9896C189.056 26.0676 189.275 26.1612 189.446 26.3172C189.618 26.4888 189.805 26.598 190.023 26.7072C190.304 26.8476 190.601 26.988 190.913 27.0972C191.24 27.2064 191.521 27.378 191.771 27.5652C192.161 27.8148 192.582 28.0332 193.019 28.1424C193.44 28.2828 193.83 28.5012 194.235 28.7508C194.313 28.782 194.345 28.86 194.376 28.9692C194.407 29.0784 194.407 29.1408 194.407 29.2188C194.407 29.328 194.376 29.4684 194.298 29.6088C194.22 29.7492 194.157 29.8896 194.048 30.03C193.939 30.2016 193.83 30.3576 193.721 30.4512C193.611 30.5916 193.502 30.7008 193.471 30.81C193.331 31.0284 193.112 31.1376 192.863 31.1376C192.722 31.1376 192.395 30.9972 191.864 30.7476C191.334 30.498 190.757 30.1704 190.164 29.8584C189.571 29.5464 188.994 29.2188 188.463 28.8912C187.933 28.5636 187.574 28.392 187.434 28.314C187.403 28.4544 187.356 28.5948 187.356 28.704C187.356 29.0316 187.387 29.3748 187.434 29.7024C187.465 30.03 187.465 30.3732 187.465 30.7008C187.465 30.81 187.465 30.8724 187.434 30.9504C187.403 31.0596 187.356 31.1688 187.356 31.278C187.356 31.6056 187.387 31.9488 187.434 32.3076C187.465 32.6664 187.465 33.0252 187.465 33.3372V33.4464C187.465 33.4464 187.434 33.5556 187.387 33.5868C187.356 33.696 187.309 33.9144 187.356 34.2264V34.9752C187.356 35.2248 187.356 35.4432 187.387 35.646C187.418 35.8956 187.418 36.114 187.418 36.3636C187.418 36.6132 187.418 36.8628 187.387 37.0812C187.356 37.3308 187.356 37.5804 187.356 37.83V38.2512C187.356 38.4228 187.387 38.5788 187.465 38.6412C187.496 38.6412 187.605 38.5632 187.715 38.4696C187.824 38.3604 187.964 38.2512 188.105 38.1108C188.245 37.9704 188.385 37.83 188.526 37.6896C188.666 37.5804 188.775 37.4712 188.885 37.44C188.994 37.44 189.134 37.518 189.384 37.6116C189.602 37.752 189.805 37.9392 190.055 38.1108C190.304 38.2824 190.523 38.5008 190.694 38.688C190.866 38.8596 190.944 39.0156 190.944 39.1092C190.944 39.2028 190.913 39.3276 190.803 39.3588C190.694 39.4368 190.632 39.4992 190.554 39.5304C190.226 39.8112 189.836 40.1388 189.415 40.5288C188.994 40.9188 188.604 41.1996 188.198 41.418C187.917 41.5896 187.621 41.7768 187.34 41.9484C187.013 42.1668 186.763 42.3696 186.513 42.588C186.342 42.8064 186.045 42.978 185.702 43.1652C185.312 43.3368 184.985 43.5552 184.735 43.7268C184.704 43.758 184.626 43.8048 184.595 43.836C184.517 43.8672 184.485 43.914 184.485 43.9764C184.485 44.148 184.735 44.3352 185.234 44.5848C185.702 44.8344 186.264 45.0528 186.903 45.3024C187.512 45.552 188.12 45.7704 188.713 45.942C189.275 46.1604 189.68 46.3008 189.852 46.3632C190.023 46.4724 190.273 46.5036 190.523 46.4724C190.772 46.4724 190.991 46.5036 191.193 46.6128C191.303 46.644 191.474 46.6908 191.724 46.722C191.973 46.7532 192.192 46.8312 192.441 46.8624C192.691 46.8936 192.909 46.9716 193.081 47.0028C193.253 47.0808 193.362 47.1432 193.362 47.2524C193.362 47.3616 193.284 47.58 193.143 47.8296C193.003 48.0792 192.863 48.3288 192.675 48.6096C192.504 48.8592 192.285 49.1088 192.098 49.3272C191.88 49.4988 191.739 49.608 191.63 49.608H191.412C191.412 49.608 191.271 49.608 191.24 49.6392C190.991 49.53 190.71 49.4208 190.413 49.3116C190.133 49.2024 189.836 49.14 189.602 49.062C189.524 49.0308 189.462 49.0308 189.384 49.0308C189.275 49.0308 189.212 48.9996 189.165 48.9528C188.994 48.9528 188.775 48.9216 188.526 48.8124C188.276 48.7032 188.027 48.594 187.855 48.5628C187.465 48.4536 187.075 48.3132 186.716 48.1728C186.357 48.0324 185.967 47.892 185.577 47.7048C185.468 47.6268 185.328 47.5644 185.187 47.4864C185.047 47.3772 184.907 47.3148 184.766 47.2368C184.548 47.1276 184.345 47.0184 184.095 46.9092C183.846 46.8 183.627 46.6908 183.456 46.5816C183.128 46.41 182.847 46.1916 182.567 45.9732C182.286 45.8016 182.005 45.5832 181.677 45.4116C181.428 45.24 181.069 44.9436 180.679 44.5536C180.258 44.1636 179.899 43.8828 179.649 43.6644C179.119 43.1652 178.589 42.6348 178.089 42.1044C177.918 41.9328 177.762 41.6832 177.621 41.4336C177.45 41.0748 177.2 40.6848 176.951 40.2948C176.701 39.9048 176.42 39.5772 176.171 39.2652C176.139 39.234 176.139 39.1872 176.093 39.156C176.061 39.1248 175.983 39.1248 175.952 39.1248C175.453 39.1248 174.954 39.1248 174.486 39.156C173.987 39.1872 173.487 39.1872 172.988 39.1872C172.739 39.1872 172.489 39.1872 172.239 39.156C171.99 39.1248 171.709 39.1248 171.459 39.1248C171.288 39.1248 171.132 39.156 171.101 39.234C171.023 39.312 170.991 39.4524 170.991 39.624C170.991 39.7956 170.991 39.9516 171.023 40.092C171.054 40.2636 171.054 40.4196 171.054 40.5912C171.054 40.7004 171.054 40.8096 171.023 40.9188C170.991 41.028 170.991 41.1372 170.991 41.2464C170.991 41.496 170.991 41.7768 171.023 42.0264C171.054 42.276 171.054 42.5568 171.054 42.8064C171.054 42.8844 171.054 42.9468 171.023 43.0248C170.991 43.1028 170.991 43.1652 170.991 43.2432C170.991 43.3524 170.991 43.4616 171.023 43.524C171.054 43.602 171.054 43.6956 171.054 43.8048C171.054 43.914 171.054 43.9764 171.023 44.0544C170.991 44.1324 170.991 44.1948 170.991 44.2728C170.991 44.6004 171.023 44.9436 171.069 45.2712C171.101 45.5988 171.101 45.942 171.069 46.3008C171.319 46.2696 171.569 46.1916 171.818 46.1604C172.037 46.1292 172.286 46.0512 172.536 46.02C172.863 45.9888 173.144 45.9108 173.456 45.8016C173.737 45.6924 174.033 45.6612 174.345 45.6612C174.564 45.6612 174.767 45.63 174.985 45.552C175.157 45.474 175.375 45.4428 175.593 45.4428C175.703 45.4116 175.734 45.3648 175.765 45.3648C175.796 45.3336 175.937 45.3336 176.155 45.2868C176.373 45.2868 176.514 45.2868 176.576 45.2556C176.935 45.1776 177.325 45.084 177.715 44.928C178.105 44.8188 178.464 44.7564 178.823 44.7096C178.932 44.7096 179.041 44.6784 179.15 44.6316C179.228 44.6004 179.322 44.5536 179.431 44.5536C179.509 44.5536 179.571 44.6316 179.603 44.7252C179.634 44.8656 179.712 45.006 179.743 45.1932C179.774 45.3648 179.774 45.5208 179.821 45.6924C179.852 45.864 179.852 45.9732 179.852 46.02V46.1604C179.852 46.1604 179.821 46.2696 179.821 46.3788C179.79 46.41 179.79 46.4568 179.79 46.488C179.79 46.5192 179.79 46.566 179.759 46.5972C179.727 46.7064 179.681 46.7376 179.587 46.7688C179.415 46.8 179.197 46.878 178.979 46.9404C178.76 47.0184 178.557 47.0808 178.339 47.112C178.121 47.1432 177.918 47.2212 177.699 47.2524C177.481 47.2836 177.278 47.3616 177.06 47.3928C176.982 47.424 176.701 47.5332 176.249 47.6736C175.781 47.7828 175.25 47.9232 174.689 48.0636C174.127 48.1728 173.581 48.3132 173.082 48.4224C172.551 48.5316 172.224 48.594 172.083 48.6408C171.974 48.672 171.865 48.672 171.756 48.672C171.647 48.672 171.537 48.7032 171.428 48.75C170.757 48.9996 170.118 49.14 169.478 49.218C169.197 49.2492 168.901 49.3272 168.667 49.4364C168.386 49.5144 168.09 49.5768 167.778 49.608C167.747 49.6392 167.637 49.6392 167.528 49.686C167.388 49.686 167.279 49.6548 167.247 49.608C166.998 49.686 166.748 49.7484 166.53 49.8264C166.28 49.9044 166.031 49.9356 165.781 49.9356C165.75 49.9668 165.641 49.9668 165.531 49.9668C165.36 49.9668 165.173 49.8888 165.001 49.7172C164.829 49.5456 164.673 49.3272 164.58 49.0776C164.439 48.828 164.33 48.5784 164.252 48.3288C164.143 48.0792 164.112 47.8608 164.112 47.7204C164.112 47.6424 164.112 47.58 164.143 47.502C164.174 47.424 164.221 47.3928 164.315 47.3616C164.564 47.2524 164.892 47.2212 165.204 47.19C165.516 47.1588 165.843 47.1588 166.124 47.112C166.233 47.112 166.452 47.0808 166.701 47.0028C166.951 46.9248 167.091 46.9248 167.201 46.9716H167.31C167.481 46.9716 167.637 46.9404 167.809 46.8624C167.949 46.7844 168.09 46.7532 168.277 46.7532C168.308 46.5348 168.355 46.332 168.386 46.1136L168.339 46.1916ZM184.236 29.6088C183.986 29.5776 183.737 29.5308 183.456 29.4996C183.128 29.4684 182.847 29.4684 182.567 29.4684H182.036C181.787 29.4684 181.506 29.4684 181.256 29.4996C181.007 29.5308 180.726 29.5308 180.476 29.5308C180.227 29.5308 179.946 29.5308 179.696 29.4996C179.447 29.4684 179.166 29.4684 178.916 29.4684C178.807 29.4684 178.698 29.4684 178.635 29.4996C178.573 29.5308 178.464 29.5308 178.355 29.5308H175.079C174.907 29.5308 174.751 29.5308 174.611 29.4996C174.47 29.4684 174.33 29.4684 174.189 29.4684C174.08 29.4684 173.971 29.4684 173.862 29.4996C173.753 29.5308 173.612 29.5308 173.503 29.5308H171.475C171.366 29.562 171.257 29.562 171.147 29.6088C171.038 29.64 171.007 29.6868 171.007 29.718C171.007 29.718 170.997 29.744 170.976 29.796C170.976 29.9052 170.976 29.9676 171.007 30.0456V30.2952C171.007 30.2952 171.038 30.4356 171.038 30.576C171.038 30.6852 171.038 30.7476 171.007 30.8256C170.976 30.9348 170.976 30.9972 170.976 31.1064C170.976 31.1844 170.976 31.2468 171.007 31.278V31.4964C171.007 31.746 171.007 31.8864 171.038 31.9956C171.038 32.1048 171.179 32.136 171.428 32.136C171.678 32.136 171.959 32.1048 172.208 32.058C172.458 32.0268 172.739 32.0268 172.988 32.0268C173.456 32.0268 173.877 32.0268 174.345 32.058C174.813 32.0892 175.235 32.136 175.703 32.136C175.781 32.136 175.843 32.136 175.921 32.1048C175.999 32.0736 176.061 32.0736 176.171 32.0736C176.28 32.0736 176.389 32.0736 176.498 32.1048C176.576 32.136 176.67 32.136 176.779 32.136C177.029 32.136 177.309 32.1048 177.559 32.058C177.809 32.0268 178.089 32.0268 178.339 32.0268C178.947 32.0268 179.587 32.0268 180.195 32.058C180.804 32.0892 181.443 32.0892 182.052 32.0892C182.442 32.0892 182.879 32.0892 183.3 32.058C183.721 32.0268 184.158 32.0268 184.548 32.0268C184.548 32.0268 184.574 32.0164 184.626 31.9956H184.657C184.688 31.8864 184.688 31.746 184.688 31.5744C184.688 31.4028 184.688 31.2156 184.657 31.044C184.626 30.8724 184.579 30.6852 184.579 30.5136C184.579 30.4044 184.579 30.2952 184.61 30.186V29.9364C184.61 29.796 184.501 29.6868 184.251 29.6088H184.236ZM183.315 34.242H183.237C183.237 34.242 183.159 34.2732 183.128 34.2732C182.957 34.2732 182.738 34.242 182.567 34.1952C182.395 34.164 182.177 34.164 181.989 34.164C181.802 34.164 181.631 34.164 181.49 34.1952C181.319 34.2264 181.131 34.2732 180.96 34.2732C180.429 34.2732 179.852 34.2732 179.322 34.242C178.791 34.2108 178.214 34.2108 177.684 34.2108H177.465C177.356 34.242 177.294 34.242 177.216 34.242H176.966C176.966 34.242 176.717 34.2108 176.358 34.164C175.968 34.164 175.578 34.164 175.11 34.1328H173.004C172.895 34.1328 172.832 34.1328 172.754 34.164C172.676 34.1952 172.614 34.242 172.505 34.242C171.974 34.242 171.584 34.2732 171.335 34.3824C171.085 34.4916 170.945 34.8504 170.945 35.49C170.945 35.6616 170.945 35.88 170.976 36.0516V36.6288C170.976 36.6288 171.007 36.7068 171.054 36.8004C171.085 36.9096 171.132 36.972 171.163 36.9408H171.272C171.381 36.9408 171.522 36.9408 171.631 36.972C171.74 37.0032 171.881 37.0032 171.99 37.0032H173.628C173.737 37.0032 173.799 36.972 173.877 36.9252C173.955 36.894 174.018 36.894 174.096 36.894H176.202C176.311 36.894 176.373 36.894 176.483 36.9252C176.561 36.9564 176.654 37.0032 176.763 37.0032C176.935 37.0032 177.122 36.972 177.294 36.9252C177.434 36.894 177.621 36.894 177.793 36.894C177.965 36.894 178.152 36.894 178.323 36.9252C178.495 36.9564 178.682 37.0032 178.854 37.0032C179.072 37.0032 179.275 37.0032 179.493 36.972C179.665 36.9408 179.883 36.9408 180.102 36.9408C180.242 36.9408 180.383 36.9408 180.523 36.972C180.663 37.0032 180.804 37.05 180.944 37.05C181.116 37.05 181.272 37.05 181.443 37.0188H181.911C182.192 37.0188 182.52 37.0188 182.832 36.9876C183.159 36.9876 183.44 36.9564 183.721 36.8472C183.971 36.7692 184.189 36.6288 184.361 36.426C184.532 36.2544 184.61 35.9268 184.61 35.5368C184.61 35.0688 184.579 34.7256 184.47 34.5072C184.361 34.3356 184.049 34.2264 183.503 34.2264C183.393 34.2264 183.331 34.2264 183.284 34.2576L183.315 34.242ZM176.514 27.0816C176.514 27.0816 176.483 26.9724 176.483 26.9412C176.483 26.7696 176.514 26.5824 176.561 26.4108C176.592 26.2704 176.592 26.0832 176.592 25.9116V25.0224C176.561 24.7416 176.561 24.4608 176.561 24.1644C176.561 23.9928 176.701 23.9148 177.029 23.8836C177.309 23.8524 177.497 23.8524 177.606 23.8524C178.355 23.8524 178.823 24.024 178.963 24.414C179.103 24.804 179.181 25.3344 179.181 25.974V26.9412C179.181 27.0816 179.213 27.1596 179.259 27.1908C179.291 27.222 179.369 27.2688 179.478 27.2688C179.509 27.2376 179.587 27.2376 179.649 27.2376C179.899 27.2376 180.18 27.2376 180.429 27.2688C180.679 27.3 180.96 27.3468 181.209 27.3468C181.319 27.3468 181.381 27.3468 181.459 27.3156C181.537 27.2844 181.599 27.2844 181.709 27.2844C181.849 27.2844 181.989 27.2844 182.13 27.3156C182.27 27.3468 182.411 27.3468 182.551 27.3468C182.66 27.3468 182.801 27.3156 182.91 27.2688C183.019 27.2376 183.159 27.2376 183.269 27.2376C183.627 27.2376 183.986 27.2376 184.329 27.2688C184.688 27.3 185.047 27.3 185.39 27.3H185.562C185.562 27.3 185.671 27.3312 185.702 27.3C185.671 27.1908 185.531 27.1284 185.343 27.0192C185.125 26.91 184.953 26.8476 184.844 26.7696C184.735 26.6604 184.595 26.5512 184.485 26.442C184.376 26.3328 184.236 26.2704 184.127 26.1612C183.986 26.052 183.846 25.9428 183.705 25.8336C183.565 25.7244 183.425 25.662 183.284 25.5528C182.676 25.0848 182.114 24.6324 181.584 24.0864C181.053 23.556 180.476 23.0568 179.946 22.5264C179.837 22.4484 179.696 22.308 179.478 22.0584C179.259 21.8088 179.057 21.5592 178.838 21.3096C178.589 21.06 178.37 20.8416 178.199 20.6388C177.98 20.4672 177.84 20.358 177.777 20.358C177.715 20.358 177.637 20.436 177.528 20.5296C177.419 20.67 177.278 20.8104 177.169 20.9976C177.06 21.1848 176.919 21.3252 176.81 21.4656C176.701 21.6372 176.592 21.7464 176.529 21.8244C176.28 21.996 176.061 22.2924 175.812 22.6044C175.562 22.9632 175.313 23.2752 175.141 23.5248C174.751 23.946 174.361 24.336 173.971 24.6948C173.581 25.0848 173.16 25.4748 172.754 25.8648C172.723 25.896 172.645 25.974 172.614 26.0364C172.536 26.1144 172.473 26.1768 172.442 26.208C172.411 26.2392 172.302 26.3172 172.193 26.3796C172.083 26.4576 171.943 26.52 171.834 26.598C171.725 26.7072 171.615 26.7696 171.506 26.8788C171.397 26.988 171.366 27.0972 171.366 27.1596C171.475 27.2376 171.647 27.2688 171.896 27.2688C172.146 27.3 172.317 27.3 172.473 27.3C172.583 27.3 172.645 27.3 172.754 27.2688C172.832 27.2376 172.895 27.2376 173.004 27.2376H176.561C176.561 27.2376 176.561 27.1284 176.529 27.066L176.514 27.0816ZM186.623 39.2496C186.513 39.2496 186.373 39.2496 186.264 39.2184C186.123 39.1872 185.983 39.1872 185.874 39.1872C185.375 39.1872 184.875 39.1872 184.423 39.2184C183.924 39.2496 183.425 39.2496 182.925 39.2496H179.759C179.649 39.2496 179.587 39.2496 179.54 39.2184C179.462 39.1872 179.4 39.1872 179.291 39.1872C179.119 39.1872 178.963 39.1872 178.869 39.2184C178.901 39.2964 178.979 39.39 179.119 39.546C179.228 39.6552 179.291 39.7956 179.369 39.9048C179.447 40.014 179.54 40.1544 179.649 40.2636C179.759 40.3728 179.899 40.5444 180.149 40.794C180.367 41.0436 180.617 41.3244 180.897 41.574C181.147 41.8548 181.428 42.1044 181.677 42.3228C181.927 42.5412 182.099 42.6816 182.208 42.7128C182.426 42.6036 182.676 42.4632 182.957 42.2916C183.206 42.12 183.487 41.9016 183.783 41.6832C184.064 41.4648 184.345 41.262 184.641 41.0436C184.891 40.8252 185.141 40.6536 185.39 40.5132C185.499 40.4352 185.64 40.3416 185.749 40.1856C185.858 40.0452 185.999 39.9048 186.108 39.7956C186.139 39.7956 186.279 39.7176 186.467 39.546C186.638 39.4056 186.794 39.2964 186.825 39.2652H186.654L186.623 39.2496Z" fill="#231815"/>
<path d="M211.677 28.4076C211.536 28.4076 211.318 28.4856 211.068 28.5792C210.819 28.7196 210.538 28.86 210.257 29.0472C209.976 29.2344 209.727 29.4372 209.477 29.6244C209.228 29.796 209.087 29.952 209.009 30.0456C208.9 30.1548 208.791 30.2952 208.728 30.4044C208.65 30.5136 208.557 30.654 208.448 30.7632C208.276 30.9348 208.058 31.122 207.839 31.2312C207.621 31.3404 207.449 31.4808 207.262 31.6524C207.153 31.7616 207.044 31.8708 206.934 31.98C206.825 32.0892 206.685 32.1984 206.576 32.3076C206.186 32.5572 205.796 32.8068 205.468 33.0252C205.109 33.2436 204.719 33.4152 204.298 33.6024C204.189 33.6336 204.017 33.7116 203.768 33.8208C203.518 33.93 203.346 33.9612 203.237 33.9612C202.988 33.9612 202.66 33.9612 202.317 33.93C201.958 33.93 201.599 33.8988 201.287 33.7896C200.96 33.7116 200.679 33.5712 200.429 33.3996C200.18 33.228 200.07 32.9316 200.07 32.6196C200.07 32.2608 200.18 31.902 200.398 31.5588C200.616 31.2 200.928 31.0284 201.318 31.0284C201.568 31.0284 201.818 31.0596 202.067 31.1376C202.286 31.2156 202.535 31.2468 202.785 31.2468C203.034 31.2468 203.315 31.2156 203.674 31.1064C204.033 30.9972 204.314 30.888 204.485 30.7788C204.657 30.6696 204.844 30.498 204.984 30.3108C205.094 30.1392 205.234 29.9832 205.406 29.8428C205.733 29.562 206.076 29.2656 206.404 28.9536C206.732 28.6728 207.012 28.392 207.324 28.0644C207.434 27.9552 207.574 27.846 207.683 27.8148C207.792 27.7836 207.902 27.7056 207.933 27.6432C208.042 27.534 208.151 27.4248 208.26 27.3156C208.338 27.2064 208.432 27.0972 208.541 26.988C208.713 26.8164 208.931 26.6604 209.259 26.52C209.54 26.4108 209.867 26.3016 210.179 26.1924C210.507 26.0832 210.819 26.0208 211.146 25.974C211.474 25.9428 211.708 25.896 211.926 25.896C213.096 25.896 214.095 26.1144 214.922 26.5356C215.702 26.9568 216.45 27.6432 217.199 28.5324C217.371 28.782 217.558 29.0004 217.698 29.25C217.808 29.4996 217.979 29.718 218.166 29.9676C218.307 30.186 218.494 30.3888 218.666 30.6072C218.837 30.8256 219.024 30.9972 219.196 31.1844C219.368 31.3248 219.555 31.512 219.695 31.6836C219.867 31.9332 220.085 32.214 220.272 32.4636C220.444 32.7444 220.631 32.994 220.834 33.2436C221.162 33.5712 221.474 33.8832 221.832 34.1328C222.191 34.4136 222.55 34.6944 222.862 34.9908C223.252 35.3496 223.673 35.6616 224.079 35.9892C224.469 36.3168 224.89 36.5976 225.358 36.8784C225.53 36.9876 225.717 37.05 225.888 37.05C226.06 37.0812 226.278 37.128 226.466 37.2216C226.887 37.44 227.386 37.6116 227.963 37.7208C228.494 37.83 229.024 37.9392 229.492 37.9704C229.742 38.0016 230.022 38.0484 230.272 38.0796C230.522 38.1108 230.802 38.1576 231.052 38.1576C231.161 38.1576 231.27 38.1576 231.38 38.1264H231.91C231.91 38.1264 232.05 38.1576 232.082 38.2356C232.191 38.3136 232.253 38.4852 232.253 38.766C232.222 39.0468 232.222 39.2652 232.253 39.3744C232.284 39.4056 232.284 39.4836 232.331 39.5148C232.362 39.5928 232.362 39.6552 232.362 39.6864C232.362 39.7956 232.331 39.9048 232.284 40.014C232.253 40.1232 232.175 40.2636 232.144 40.3728C231.972 40.794 231.723 41.0124 231.426 41.0436C231.146 41.0748 230.787 41.1216 230.397 41.1216C230.069 41.1216 229.757 41.0436 229.43 40.9032C229.102 40.794 228.821 40.7316 228.618 40.7316C228.587 40.7628 228.509 40.8096 228.4 40.7628H228.182C228.182 40.7628 227.963 40.7316 227.714 40.6536C227.464 40.6224 227.183 40.5444 226.902 40.482C226.622 40.404 226.372 40.3416 226.122 40.2636C225.873 40.1856 225.701 40.1544 225.623 40.1232C225.514 40.092 225.374 40.014 225.264 39.9048C225.155 39.7956 225.015 39.7332 224.874 39.6864C224.703 39.6552 224.484 39.5772 224.204 39.468C223.876 39.39 223.704 39.2964 223.595 39.1404C223.346 39 223.127 38.8596 222.878 38.7504C222.628 38.6412 222.41 38.5008 222.207 38.3292C221.739 38.0016 221.318 37.6584 220.928 37.2996C220.506 36.9408 220.07 36.5508 219.68 36.1608C219.57 36.0516 219.508 35.9424 219.43 35.8332C219.352 35.724 219.29 35.6616 219.18 35.5524C218.572 34.944 218.01 34.242 217.433 33.4152C217.355 33.306 217.324 33.1968 217.293 33.0876C217.262 32.9784 217.215 32.8692 217.121 32.76C216.95 32.5104 216.653 32.1516 216.341 31.6992C216.014 31.278 215.67 30.8412 215.312 30.3888C214.922 29.9676 214.563 29.5776 214.173 29.2188C213.783 28.8912 213.455 28.6884 213.174 28.5792C212.816 28.47 212.457 28.4388 212.114 28.4388H211.692L211.677 28.4076ZM225.42 28.2984C225.311 28.3764 225.202 28.4076 225.093 28.4076C224.984 28.4388 224.843 28.4388 224.703 28.4076H224.344C224.235 28.4076 224.126 28.4076 224.016 28.4388C223.907 28.47 223.798 28.47 223.689 28.47C223.611 28.47 223.58 28.392 223.548 28.2516C223.517 28.1424 223.47 28.002 223.47 27.8304C223.439 27.69 223.439 27.5496 223.439 27.4092C223.408 27.2688 223.408 27.1596 223.408 27.1284C223.377 27.0972 223.377 26.988 223.377 26.8788C223.377 26.5512 223.408 26.208 223.455 25.8492C223.486 25.5216 223.533 25.1784 223.533 24.8508V23.79C223.533 23.79 223.533 23.6496 223.502 23.6184V23.4C223.502 23.4 223.47 23.2908 223.47 23.2284C223.47 23.088 223.502 22.9476 223.548 22.7604C223.58 22.5888 223.689 22.5108 223.876 22.5108H224.204C224.344 22.542 224.453 22.542 224.484 22.5888H224.843C225.015 22.62 225.124 22.5888 225.202 22.5576H225.42C225.42 22.5576 225.53 22.6356 225.53 22.7292C225.53 22.7604 225.53 22.8384 225.498 22.9008C225.467 22.9632 225.467 23.0412 225.467 23.0724C225.436 23.1036 225.436 23.1504 225.436 23.244C225.436 23.4936 225.467 23.7432 225.545 23.9928C225.576 24.2424 225.623 24.492 225.623 24.7416C225.623 25.0692 225.592 25.3812 225.545 25.662C225.514 25.9896 225.467 26.3016 225.467 26.6292C225.467 26.8476 225.498 27.0504 225.545 27.2376C225.592 27.4248 225.623 27.6588 225.623 27.9864C225.623 28.1268 225.592 28.236 225.483 28.314L225.42 28.2984ZM227.948 28.47C227.948 28.47 227.87 28.47 227.838 28.4388C227.807 28.4388 227.76 28.4076 227.76 28.3296V28.1112C227.76 28.002 227.76 27.8616 227.792 27.7212C227.823 27.5808 227.823 27.4404 227.823 27.3312C227.823 27.0504 227.792 26.754 227.745 26.4732C227.698 26.1924 227.667 25.9116 227.667 25.6152C227.667 25.4436 227.698 25.2252 227.745 25.0536C227.776 24.882 227.823 24.6948 227.823 24.5232V23.1036C227.823 22.854 227.901 22.7136 228.041 22.6356C228.182 22.6044 228.369 22.5576 228.54 22.5576H229.539C229.71 22.5576 229.82 22.5888 229.788 22.6668C229.757 22.776 229.757 22.8852 229.757 22.9944C229.757 23.244 229.788 23.4624 229.835 23.6652C229.882 23.868 229.866 24.0864 229.866 24.336V24.6948C229.835 24.8352 229.835 24.9756 229.835 25.0848C229.835 25.194 229.866 25.3032 229.913 25.3656C229.944 25.4748 229.944 25.584 229.944 25.6932C229.944 25.8336 229.944 25.974 229.913 26.0832C229.882 26.2236 229.882 26.364 229.882 26.5044C229.882 26.676 229.882 26.8944 229.913 27.1128V28.0332C229.913 28.0332 229.882 28.1736 229.773 28.2048C229.664 28.236 229.523 28.2828 229.414 28.314C229.274 28.3452 229.133 28.392 229.024 28.4232C228.884 28.4544 228.774 28.4544 228.743 28.4544H227.963L227.948 28.47Z" fill="#231815"/>
<path d="M43.9145 58.5C43.6649 58.1568 43.1813 57.0336 42.7289 57.0024C41.6837 56.9244 41.5745 55.4268 42.4481 55.224C42.4481 55.1928 42.4169 55.1772 42.4169 55.146C42.4169 55.068 42.4481 55.0368 42.5261 55.0056C42.5573 54.9744 42.6353 54.9276 42.6665 54.8964C42.9161 54.7092 43.2437 54.5064 43.6337 54.3192C43.9925 54.132 44.2733 53.9604 44.4605 53.742C44.7101 53.5236 44.9597 53.3052 45.2873 53.1024L46.1453 52.5564C46.5353 52.338 46.9409 52.0572 47.3621 51.6516C47.7989 51.2616 48.1889 50.934 48.5165 50.6376C48.5945 50.6064 48.6569 50.5284 48.7661 50.4504C48.8753 50.4192 48.9065 50.31 48.9065 50.2008C48.9065 50.0916 48.8285 49.9512 48.6569 49.764C48.4697 49.5768 48.2669 49.374 48.0173 49.1868C47.7677 48.9996 47.5493 48.828 47.3309 48.6876C47.0813 48.5784 46.9409 48.5004 46.8317 48.5004C46.7225 48.5316 46.6133 48.6408 46.4729 48.75L46.0361 49.1868C45.8957 49.3272 45.7553 49.4364 45.6461 49.5456C45.5369 49.6548 45.4277 49.7328 45.3965 49.7328C45.3185 49.6548 45.2873 49.5144 45.2873 49.3428V48.906C45.2873 48.6564 45.2873 48.4068 45.3185 48.1572C45.3497 47.9388 45.3497 47.6892 45.3497 47.4396C45.3497 47.19 45.3497 46.9716 45.3185 46.722C45.2873 46.5036 45.2873 46.2852 45.2873 46.0356V45.2868C45.2561 44.9592 45.2873 44.7408 45.3185 44.6472C45.3497 44.616 45.3497 44.538 45.3965 44.5068V44.3976C45.3965 44.07 45.3965 43.7112 45.3653 43.3524C45.3341 42.9936 45.2873 42.6348 45.2873 42.3072C45.2873 42.198 45.3185 42.0888 45.3653 41.9796C45.3965 41.9016 45.3965 41.8392 45.3965 41.73C45.3965 41.4024 45.3965 41.0436 45.3653 40.716C45.3341 40.3884 45.2873 40.0296 45.2873 39.702C45.2873 39.5928 45.3185 39.4524 45.3653 39.312C45.3965 39.3276 45.4589 39.3588 45.5213 39.39C44.9753 38.5164 45.1469 37.518 45.3029 36.192C45.3029 36.192 45.3029 36.192 45.3185 36.192C45.3185 36.1608 45.3185 36.114 45.3185 36.0828C44.9909 35.8332 44.6477 35.5836 44.3201 35.3496C44.2109 35.3184 44.1017 35.2404 43.9613 35.1312C43.8209 35.0532 43.7117 34.9908 43.6805 34.9128C43.5713 34.8816 43.4621 34.7724 43.3529 34.632C43.2125 34.5228 43.0721 34.4136 42.9629 34.3512C42.2141 33.8052 41.4497 33.1968 40.7321 32.526C40.0145 31.8396 39.3281 31.122 38.7197 30.4356C38.5793 30.2952 38.4389 30.1548 38.3297 29.9988C38.2205 29.8428 38.0801 29.718 37.9397 29.562C37.8305 29.4528 37.7213 29.3124 37.6121 29.1252C37.5029 28.9848 37.3937 28.8444 37.2845 28.7352C37.1753 28.626 37.0037 28.5168 36.7385 28.4856C36.4733 28.4544 36.2705 28.4544 36.0989 28.4544H35.4593C35.4593 28.4544 35.3657 28.4544 35.3189 28.4544C35.1005 28.392 34.8821 28.3608 34.6637 28.3296C34.6637 28.236 34.6637 28.1424 34.6481 28.0332C34.5701 27.7056 34.5077 27.3936 34.4297 26.988C34.3205 26.598 34.2425 26.2392 34.1489 25.8804C34.0397 25.5528 33.9305 25.3032 33.8993 25.194C33.8681 25.116 33.7901 25.0068 33.6809 24.8664C33.5717 24.7572 33.5405 24.648 33.5405 24.5856C33.5405 24.258 33.5405 23.8992 33.5717 23.5716C33.6029 23.244 33.6029 22.8852 33.6029 22.5576C33.6029 22.308 33.6341 22.0896 33.6809 21.8712C33.7121 21.6528 33.7589 21.4344 33.7589 21.1848C33.7589 21.0756 33.7277 20.904 33.6185 20.6388C33.6497 20.5296 33.6497 20.358 33.6965 20.1396C33.7277 19.9212 33.8057 19.7808 33.9149 19.7496C33.9461 19.7496 34.1333 19.7496 34.4921 19.7184C34.8197 19.7184 35.2097 19.7184 35.6465 19.6872H37.5185C37.7057 19.6872 37.8773 19.6872 38.0645 19.7184C38.2049 19.7496 38.3921 19.7964 38.5637 19.7964C38.9225 19.7964 39.2813 19.7964 39.6089 19.7652C39.9365 19.734 40.2953 19.734 40.6541 19.734H41.5901C41.8709 19.7652 42.1673 19.7652 42.4949 19.7652C42.6821 19.7652 42.8537 19.7652 43.0409 19.734C43.2281 19.7028 43.3997 19.7028 43.5869 19.7028C43.7741 19.7028 43.9769 19.7028 44.1641 19.734C44.3513 19.7652 44.5229 19.7652 44.7101 19.7652C44.9597 19.7652 45.2561 19.7652 45.5369 19.734C45.7865 19.7028 45.9269 19.5156 45.9269 19.1568V18.8292C45.8957 18.72 45.8957 18.6108 45.8957 18.5016C45.8957 18.3924 45.8957 18.252 45.9269 18.1116V17.6748C45.8957 17.5656 45.8489 17.4564 45.8177 17.3472C45.7397 17.2692 45.6305 17.238 45.4901 17.238H45.1001C44.9597 17.2692 44.8193 17.2692 44.6633 17.2692C44.4137 17.2692 44.1953 17.238 44.0237 17.1912C43.8053 17.16 43.5869 17.16 43.3841 17.16C43.3529 17.1288 43.2437 17.1288 43.1345 17.1288C43.0253 17.1288 42.8849 17.16 42.7757 17.2068C42.6665 17.238 42.5261 17.2848 42.4169 17.2848C42.3077 17.2848 42.1985 17.2848 42.0893 17.2536C41.9801 17.2224 41.8709 17.2224 41.7617 17.2224H40.7945C40.6073 17.2224 40.4669 17.2224 40.3265 17.2536C40.1861 17.2848 40.0457 17.2848 39.8897 17.2848C39.6713 17.2848 39.4529 17.2536 39.2813 17.1756C39.0941 17.1444 38.8913 17.0976 38.6729 17.0976C38.4857 17.0976 38.2829 17.1288 38.0645 17.1756C37.8461 17.2068 37.6277 17.2536 37.4561 17.2536H35.3033C34.6169 17.2536 34.1957 17.1444 33.9305 16.9728C33.6653 16.8012 33.5717 16.3644 33.5717 15.678V15.1788C33.5717 14.9916 33.6029 14.82 33.6809 14.6328C33.7121 14.4924 33.7589 14.3052 33.7589 14.1336C33.7589 13.806 33.7589 13.494 33.7277 13.1664C33.6965 12.8856 33.6965 12.558 33.6965 12.2304C33.6965 12.0432 33.6965 11.8404 33.7277 11.6532C33.7589 11.466 33.7589 11.2944 33.7589 11.1072C33.7589 10.92 33.7277 10.7796 33.6497 10.7172C33.5717 10.686 33.4313 10.6392 33.2597 10.6392H32.7137C32.5265 10.6704 32.3549 10.6704 32.1677 10.6704C31.6997 10.6704 31.4189 10.7016 31.2629 10.7484C31.1225 10.7796 31.0445 11.076 31.0445 11.544C31.0445 11.6844 31.0445 11.8248 31.0757 11.9808V12.4176C31.0757 12.6672 31.0757 12.8856 31.0445 13.104C31.0133 13.3224 30.9665 13.5408 30.9665 13.7904C30.9665 14.118 30.9977 14.3988 31.0757 14.6952C31.1537 14.976 31.1849 15.2724 31.1849 15.6C31.1849 15.7092 31.1537 15.8184 31.1069 15.9276C31.0289 16.068 30.9977 16.2864 30.9977 16.536C30.9977 16.7544 30.9665 16.926 30.8573 17.0352C30.6701 17.1444 30.4985 17.1756 30.2801 17.1756C30.0305 17.2068 29.8121 17.2068 29.5625 17.2068C29.3129 17.238 29.0945 17.2848 28.8449 17.316C28.7045 17.3472 28.5953 17.394 28.4861 17.394C28.1585 17.394 27.8777 17.3628 27.6905 17.2848C27.4721 17.2536 27.2537 17.2068 27.0509 17.2068H25.1477C25.0385 17.2068 24.9605 17.2068 24.8981 17.238C24.7889 17.2692 24.7109 17.2692 24.6173 17.2692C24.4769 17.2692 24.3365 17.2692 24.2273 17.238H23.7905C23.6501 17.238 23.5097 17.238 23.4005 17.2692C23.2913 17.3004 23.1509 17.3004 23.0105 17.3004C22.8701 17.3004 22.7297 17.2692 22.5737 17.2224C22.4333 17.1912 22.2929 17.1444 22.1057 17.1444C21.8249 17.1444 21.5285 17.1444 21.2477 17.1756C20.9669 17.2068 20.6705 17.2536 20.3897 17.2536H15.7565C15.7565 17.2536 15.5693 17.2536 15.4289 17.2224H14.9921C14.8049 17.2224 14.6645 17.2224 14.5553 17.2536C14.4461 17.2848 14.3681 17.3628 14.3369 17.4408C14.3057 17.5188 14.3057 17.628 14.3057 17.7684C14.3057 17.9556 14.3369 18.1584 14.4149 18.3456C14.4461 18.564 14.4929 18.7824 14.4929 18.954C14.4929 19.032 14.4929 19.0944 14.4617 19.1412C14.4617 19.1724 14.4617 19.2504 14.4305 19.2816C14.3993 19.3596 14.3993 19.422 14.3993 19.4688C14.3993 19.656 14.5397 19.7184 14.8361 19.7496C15.0857 19.7808 15.3041 19.7808 15.4133 19.7808C15.6005 19.7808 15.8033 19.7808 16.0217 19.7496H16.6301C16.8797 19.7496 17.0981 19.7496 17.3477 19.7808C17.5661 19.812 17.7845 19.812 18.0341 19.812C18.1433 19.812 18.2213 19.812 18.2837 19.7808C18.3149 19.7496 18.3929 19.7496 18.5021 19.7496H18.7829C18.9233 19.7808 19.0637 19.7808 19.2509 19.7808H19.6877C19.7969 19.7808 19.9061 19.7808 19.9373 19.7496H20.1557C20.3429 19.7496 20.4833 19.7496 20.6549 19.7808C20.7953 19.812 20.9357 19.812 21.1229 19.812C21.2633 19.812 21.4037 19.812 21.5597 19.7808C21.6689 19.7808 21.8093 19.7808 21.9497 19.7496C22.4489 19.6716 22.9949 19.6404 23.5253 19.6716C24.0713 19.7028 24.5705 19.7028 25.0697 19.7028H27.4409C28.1897 19.734 28.9853 19.734 29.7809 19.734C29.8901 19.734 29.9993 19.734 30.1085 19.7028C30.2177 19.6716 30.3269 19.6716 30.4361 19.6716C30.7169 19.6716 30.9041 19.7028 30.9821 19.7808C31.0601 19.8588 31.0913 20.0304 31.0913 20.28C31.0913 20.6076 31.0913 20.9196 31.0601 21.2472C31.0289 21.5748 30.9821 21.9336 30.9821 22.2612V22.5108C30.9821 22.5108 31.0133 22.5888 31.0133 22.62C31.0133 22.6512 31.0133 22.698 31.0445 22.7292V22.8384C31.0445 22.9476 31.0133 23.0256 30.9041 23.0568C30.7949 23.088 30.7169 23.088 30.6233 23.088C30.4361 23.088 30.2957 23.088 30.1553 23.0568C30.0149 23.0256 29.8745 23.0256 29.6873 23.0256H29.2505C29.1101 23.0256 28.9697 23.0568 28.8605 23.1036C28.6733 23.1816 28.5017 23.244 28.3145 23.2908C28.1273 23.3688 27.9869 23.478 27.8153 23.5716C27.3473 23.8992 26.8793 24.258 26.4113 24.6792C25.9433 25.1472 25.5845 25.6152 25.3661 26.1144C25.2569 26.3952 25.1477 26.7228 25.0853 27.1284C25.0073 27.5184 24.9761 27.846 24.9761 28.1736V28.86C24.9761 29.1096 25.0073 29.328 25.0541 29.4996C25.1633 30.186 25.4441 30.8256 25.8497 31.434C26.2553 32.0424 26.7545 32.5104 27.3941 32.76C27.5345 32.7912 27.6749 32.8692 27.8309 32.9472C27.9713 33.0564 28.1117 33.0876 28.2989 33.0876C28.4861 33.0876 28.6265 33.0096 28.7981 32.9004C28.9385 32.7912 29.0477 32.6196 29.1569 32.4324C29.2661 32.2452 29.3441 32.0736 29.4065 31.8552C29.4377 31.668 29.4845 31.4964 29.4845 31.356C29.4845 31.1064 29.4065 30.9192 29.2349 30.7788C29.0477 30.6696 28.8449 30.5292 28.6265 30.342C28.4081 30.1548 28.2365 29.9832 28.0493 29.7336C27.8621 29.5152 27.7685 29.1876 27.7685 28.7976C27.7685 28.47 27.7997 28.158 27.8777 27.7524C27.9557 27.3624 28.0649 27.0036 28.2365 26.676C28.4237 26.3484 28.6265 26.0988 28.8761 25.8492C29.1257 25.6308 29.4845 25.5216 29.8901 25.5216C30.2177 25.5216 30.4985 25.5996 30.7949 25.74C31.0445 25.9272 31.2941 26.0988 31.5125 26.3484C31.6997 26.598 31.8713 26.8476 31.9805 27.144C32.0897 27.4716 32.1677 27.7524 32.1677 28.0488C32.1677 28.158 32.1677 28.2672 32.1365 28.3764C32.1053 28.4856 32.1053 28.5948 32.1053 28.704C32.0741 28.7352 32.0741 28.8444 32.0741 28.9536C32.0741 29.0628 32.1053 29.172 32.1521 29.2812C32.1833 29.3904 32.1833 29.5308 32.1833 29.6712C32.1833 29.9208 32.1521 30.1704 32.1053 30.4668C32.0273 30.7476 31.9649 31.0128 31.8557 31.2624C31.7777 31.4808 31.6685 31.7616 31.5281 32.0892C31.3409 32.448 31.2005 32.8068 31.0289 33.1656C30.8573 33.5244 30.7013 33.852 30.5297 34.1796C30.3581 34.5072 30.1709 34.7568 30.0305 34.8972L28.5173 36.4104C28.4081 36.5196 28.2677 36.6288 28.0805 36.66C27.8933 36.738 27.7529 36.8472 27.6125 36.9408C27.2849 37.1904 26.9261 37.4088 26.5985 37.5804C26.2709 37.752 25.9121 37.9392 25.5221 38.1264C25.4129 38.1576 25.3037 38.2356 25.2413 38.2668C25.1321 38.298 25.0229 38.376 24.9137 38.4072C24.7265 38.4852 24.5549 38.5164 24.3677 38.5164C24.1805 38.5164 24.0401 38.5476 23.8685 38.6568C23.6969 38.766 23.4785 38.8752 23.2289 38.9376C22.9793 39 22.7297 39.0468 22.4801 39.0468C22.1993 39.0468 21.9029 39.1248 21.5753 39.234C21.5441 39.2652 21.3881 39.312 21.2165 39.3432C21.0293 39.4212 20.9357 39.4836 20.9357 39.5616C20.9357 39.5928 20.9669 39.6708 21.0761 39.78C21.1853 39.8892 21.2633 39.9984 21.2945 40.1076C21.3725 40.2948 21.4817 40.5756 21.5753 40.9344C21.6689 41.2932 21.8249 41.5428 21.9341 41.6832C21.9653 41.7612 22.1213 41.7924 22.2929 41.7924C22.5425 41.7924 22.7921 41.7612 22.9793 41.6832C23.1665 41.574 23.3381 41.496 23.5877 41.4336C23.7749 41.4024 23.9777 41.3556 24.1649 41.3244C24.3521 41.2932 24.5549 41.2464 24.7421 41.2152C24.8513 41.184 24.9605 41.106 25.0697 41.028C25.1789 40.95 25.2881 40.8876 25.3973 40.8408C25.5377 40.8096 25.6781 40.7628 25.8341 40.7628C25.9745 40.7316 26.1149 40.6848 26.2709 40.6536C26.3021 40.6536 26.3333 40.638 26.3489 40.6224C26.3489 40.7004 26.3645 40.794 26.3957 40.8876C26.3957 41.0748 26.3957 41.2152 26.4269 41.3556V41.6832C26.4269 42.12 26.4269 42.5412 26.3957 42.978C26.3645 43.4148 26.3177 43.836 26.3177 44.2728C26.3177 44.382 26.3489 44.5224 26.3957 44.6316C26.4269 44.772 26.4269 44.9124 26.4269 45.0684C26.4269 45.6456 26.4269 46.2228 26.3957 46.8C26.3645 47.4084 26.3645 47.9856 26.3645 48.5628C26.3645 48.6408 26.3645 48.7032 26.3957 48.7812C26.4269 48.8592 26.4269 48.9216 26.4269 48.9996V56.0508C26.4269 56.16 26.4269 56.2692 26.3957 56.3316C26.3645 56.4408 26.3645 56.55 26.3645 56.6592V57.3456C26.3333 57.564 26.2865 57.7824 26.2553 57.9852C26.0681 57.9852 25.9277 58.0164 25.7873 58.0944C25.6001 58.1724 25.4597 58.2036 25.2881 58.2036H25.1789C25.0697 58.1724 24.9293 58.1724 24.6797 58.2348C24.6485 58.2348 24.6329 58.2348 24.6173 58.2504C24.6641 58.3596 24.6953 58.4688 24.7109 58.5936C24.8201 58.656 24.9293 58.7496 25.0229 58.89C25.3505 59.4048 25.8341 59.7168 26.3645 59.8728C27.0665 59.8728 27.7685 59.826 28.4705 59.7792C28.5641 59.7168 28.6577 59.6544 28.7513 59.592C28.7513 59.5296 28.7513 59.4672 28.7669 59.4048C28.8917 58.812 29.0009 58.2036 29.1257 57.6108C29.1257 57.564 29.1569 57.5328 29.1881 57.486C29.1725 57.486 29.1413 57.486 29.1257 57.486C29.1569 57.1272 29.1569 56.7684 29.1257 56.4408C29.0945 56.1132 29.0477 55.7544 29.0477 55.4268C29.0477 55.3488 29.0477 55.2864 29.0789 55.2084C29.1101 55.1304 29.1101 55.068 29.1101 54.9588C29.1101 54.8496 29.1101 54.7404 29.0789 54.678C29.0477 54.6156 29.0477 54.4908 29.0477 54.3972C29.0477 54.3192 29.0477 54.2568 29.0789 54.1788C29.1101 54.1008 29.1101 54.0384 29.1101 53.9604C29.1101 53.7108 29.1101 53.4144 29.0789 53.1648C29.0477 52.9152 29.0477 52.6188 29.0477 52.3692C29.0477 52.26 29.0477 52.1508 29.0789 52.0416C29.1101 51.9324 29.1101 51.8232 29.1101 51.714C29.1101 51.5268 29.1101 51.3864 29.0789 51.2148C29.0477 51.0744 29.0477 50.934 29.0477 50.7468C29.0477 50.5596 29.0789 50.4192 29.1569 50.3568C29.1881 50.2788 29.3441 50.2476 29.5157 50.2476C29.7653 50.2476 30.0617 50.2476 30.3113 50.2788C30.5609 50.31 30.8105 50.31 31.0601 50.31C31.5593 50.31 32.0741 50.31 32.5733 50.2788C33.0413 50.2476 33.5405 50.2476 34.0397 50.2476C34.0709 50.2476 34.1489 50.2476 34.1801 50.2788C34.2113 50.31 34.2113 50.3568 34.2581 50.388C34.5077 50.7156 34.8041 51.0276 35.0537 51.4332C35.3033 51.8232 35.5529 52.2288 35.7401 52.5876C35.8805 52.8372 36.0209 53.0868 36.2081 53.274C36.7073 53.82 37.2533 54.3504 37.7837 54.8496C38.0333 55.068 38.3921 55.3488 38.8289 55.7544C39.2189 56.1444 39.5777 56.4408 39.8429 56.6124C40.1705 56.7996 40.4513 57.0024 40.7477 57.1896C41.0285 57.408 41.3249 57.6264 41.6525 57.798C41.8397 57.9072 42.0425 58.0164 42.2921 58.1256C42.5417 58.2348 42.7601 58.344 42.9785 58.4532C43.1189 58.5312 43.2593 58.5936 43.4153 58.7028C43.5557 58.7808 43.6961 58.8432 43.8053 58.9212C44.1953 59.0928 44.5853 59.2488 44.9441 59.3892C44.6477 59.124 44.3981 58.8432 44.1485 58.5156L43.9145 58.5ZM31.0133 37.7988C31.2005 37.6116 31.3721 37.4088 31.5125 37.2216C31.6529 37.0344 31.7933 36.8628 31.9805 36.6444C32.1209 36.426 32.3393 36.1452 32.5889 35.8176C32.6981 35.7084 32.8073 35.568 32.9165 35.4588C33.0257 35.3496 33.1037 35.2404 33.1661 35.1312C33.3065 34.8816 33.4937 34.5228 33.6653 34.086C33.8369 33.6492 33.9929 33.1812 34.1333 32.682C34.2737 32.214 34.4141 31.746 34.5233 31.278C34.5233 31.2312 34.5389 31.1844 34.5545 31.1376C35.0381 31.1376 35.4905 31.1844 35.9429 31.356C36.0053 31.4028 36.0521 31.434 36.1301 31.4964C36.3173 31.7148 36.5201 31.9332 36.7697 32.1828C36.9881 32.4324 37.2065 32.682 37.4093 32.9316C37.6277 33.1812 37.7681 33.3216 37.8773 33.3996C38.4233 33.9456 38.9849 34.4448 39.5309 34.9752C40.0769 35.5056 40.6385 35.9892 41.2625 36.4416C41.4029 36.5508 41.5433 36.6288 41.6993 36.7224C41.8397 36.8316 41.9801 36.9408 42.1361 37.05C42.2453 37.1592 42.3857 37.2372 42.4949 37.3308C42.6041 37.44 42.7445 37.5492 42.8537 37.6584C42.9629 37.7364 43.1345 37.7988 43.3529 37.908C43.5401 38.0172 43.6805 38.0952 43.7117 38.1888C43.6805 38.22 43.6025 38.22 43.5713 38.1888H43.3841C43.0253 38.1888 42.6665 38.1888 42.3077 38.1576C41.9489 38.1264 41.5901 38.1264 41.2313 38.1264C41.1221 38.1264 40.9817 38.1264 40.8725 38.1576C40.7633 38.1888 40.6229 38.2356 40.5137 38.2356C40.3733 38.2356 40.2329 38.2356 40.0769 38.2044C39.9365 38.1732 39.7961 38.1732 39.6401 38.1732C39.5309 38.1732 39.4529 38.1732 39.3905 38.2044C39.3281 38.2356 39.2501 38.2356 39.1409 38.2356C38.8913 38.2356 38.5949 38.2044 38.3453 38.1576C38.0957 38.1264 37.7993 38.1264 37.5497 38.1264C37.4717 38.1264 37.4093 38.1264 37.3625 38.1576C37.2533 38.1576 37.1753 38.1264 37.1441 38.0796C37.1129 38.0328 37.0661 37.9704 37.0661 37.83V36.8628C37.0661 36.2232 36.9881 35.6772 36.8477 35.2872C36.7073 34.8972 36.2393 34.71 35.4749 34.71C35.3657 34.71 35.1941 34.71 34.8977 34.7412C34.5701 34.7724 34.4297 34.8504 34.4297 35.022C34.4297 35.3028 34.4297 35.5992 34.4609 35.88V36.7848C34.4609 36.972 34.4609 37.1436 34.4297 37.284C34.3985 37.4712 34.3517 37.6428 34.3517 37.83C34.3517 37.8612 34.3517 37.9392 34.3829 37.9704C34.4141 38.0484 34.4141 38.1108 34.4141 38.1576H30.8261C30.7169 38.1576 30.6389 38.1576 30.5765 38.1888C30.4829 38.22 30.4205 38.22 30.3269 38.22C30.5765 38.0328 30.7949 37.8612 30.9509 37.7364L31.0133 37.7988ZM28.8761 41.2776V41.028C28.8761 41.028 28.8449 40.8876 28.8449 40.7784C28.8449 40.7784 28.8553 40.7524 28.8761 40.7004C28.8761 40.7004 28.9073 40.6224 29.0165 40.5912C29.1257 40.56 29.2349 40.56 29.3441 40.5132H31.3877C31.4969 40.5132 31.6373 40.5132 31.7465 40.482C31.8557 40.4508 31.9649 40.4508 32.0741 40.4508C32.2145 40.4508 32.3549 40.4508 32.5109 40.482C32.6513 40.5132 32.7917 40.5132 32.9789 40.5132H36.2861C36.3953 40.5132 36.5045 40.5132 36.5669 40.482C36.6449 40.4508 36.7541 40.4508 36.8477 40.4508C37.0973 40.4508 37.3937 40.4508 37.6433 40.482C37.8929 40.5132 38.1893 40.5132 38.4389 40.5132C38.6885 40.5132 38.9849 40.5132 39.2345 40.482C39.4841 40.4508 39.7805 40.4508 40.0301 40.4508H40.5761C40.8569 40.4508 41.1533 40.4508 41.4809 40.482C41.7617 40.5132 42.0269 40.56 42.2765 40.5912C42.5261 40.6692 42.6353 40.7784 42.6353 40.9188V41.1684C42.6041 41.2776 42.6041 41.3868 42.6041 41.496C42.6041 41.6832 42.6353 41.8548 42.6821 42.042C42.7133 42.2292 42.7133 42.4008 42.7133 42.588C42.7133 42.7752 42.7133 42.9156 42.6821 43.0248H42.6509C42.6509 43.0248 42.6197 43.056 42.5729 43.056C42.1829 43.056 41.7461 43.056 41.3093 43.0872C40.8725 43.1184 40.4513 43.1184 40.0457 43.1184C39.4373 43.1184 38.7821 43.1184 38.1737 43.0872C37.5653 43.056 36.9101 43.056 36.3017 43.056C36.0521 43.056 35.7557 43.056 35.5061 43.0872C35.2565 43.1184 34.9601 43.1652 34.7105 43.1652C34.6013 43.1652 34.4921 43.1652 34.4297 43.134C34.3205 43.1028 34.2113 43.1028 34.1021 43.1028C33.9929 43.1028 33.9149 43.1028 33.8525 43.134C33.7901 43.1652 33.7121 43.1652 33.6341 43.1652C33.1661 43.1652 32.7293 43.134 32.2613 43.0872C31.7933 43.056 31.3565 43.056 30.8885 43.056C30.6389 43.056 30.3425 43.056 30.0929 43.0872C29.8433 43.1184 29.5469 43.1652 29.2973 43.1652C29.0477 43.1652 28.9073 43.134 28.9073 43.0248C28.8761 42.9156 28.8761 42.7752 28.8761 42.5256V42.3072C28.8761 42.3072 28.8449 42.198 28.8449 42.12C28.8449 42.0108 28.8449 41.9328 28.8761 41.8392C28.9073 41.7612 28.9073 41.6988 28.9073 41.5896C28.9073 41.4492 28.9073 41.34 28.8761 41.3088V41.2776ZM36.2705 47.9856C36.0833 47.9544 35.9117 47.9544 35.7245 47.9544C35.5373 47.9544 35.3657 47.9544 35.2253 47.9856C35.0381 48.0168 34.8665 48.0636 34.6793 48.0636C34.5701 48.0636 34.4609 48.0324 34.3985 47.9856C34.2893 47.9544 34.2113 47.9544 34.1177 47.9544H31.9961C31.9961 47.9544 31.8557 47.9544 31.7777 47.9856C31.6997 48.0168 31.6373 48.0636 31.5281 48.0636H29.8745C29.7653 48.0636 29.6249 48.0636 29.5157 48.0324C29.4065 48.0012 29.2661 48.0012 29.1569 48.0012H29.0477C29.0477 48.0012 28.9697 47.97 28.9385 47.8608C28.9073 47.7516 28.8605 47.7204 28.8605 47.6736V47.0964C28.8293 46.9092 28.8293 46.7064 28.8293 46.5192C28.8293 45.8796 28.9697 45.5052 29.2193 45.4116C29.4689 45.318 29.8589 45.2712 30.4049 45.2712C30.5141 45.2712 30.5921 45.24 30.6545 45.1932C30.7325 45.162 30.7949 45.162 30.9041 45.162H33.0257C33.4937 45.1932 33.8837 45.1932 34.2893 45.1932C34.6481 45.2244 34.8665 45.2244 34.8977 45.2712H35.1473C35.1473 45.2712 35.2877 45.2712 35.3969 45.24H35.6153C36.1613 45.24 36.7229 45.24 37.2689 45.2712C37.8149 45.3024 38.3765 45.3024 38.9225 45.3024C39.1097 45.3024 39.2813 45.2712 39.4685 45.2244C39.6089 45.1932 39.7961 45.1932 39.9677 45.1932C40.1393 45.1932 40.3577 45.1932 40.5449 45.2244C40.7321 45.2556 40.9349 45.3024 41.1221 45.3024C41.1533 45.3024 41.2001 45.3024 41.2313 45.2712H41.3093C41.3093 45.2712 41.4185 45.24 41.5277 45.24C42.0737 45.24 42.3857 45.3492 42.4949 45.5208C42.6041 45.7392 42.6353 46.098 42.6353 46.566C42.6353 46.956 42.5573 47.2836 42.3857 47.4708C42.1985 47.6892 41.9957 47.8296 41.7461 47.9076C41.4653 48.0168 41.1689 48.048 40.8413 48.048C40.5137 48.0792 40.2017 48.0792 39.9053 48.0792H39.4373C39.2501 48.1104 39.1097 48.1104 38.9381 48.1104C38.7977 48.1104 38.6573 48.0792 38.5013 48.0324C38.3609 48.0012 38.2205 48.0012 38.0645 48.0012C37.8461 48.0012 37.6277 48.0012 37.4561 48.0324C37.2377 48.0636 37.0193 48.0636 36.8165 48.0636C36.6293 48.0636 36.4577 48.0324 36.2705 47.9856ZM40.9505 53.3832C40.6697 53.5704 40.4045 53.7108 40.2017 53.82C40.0925 53.7888 39.9209 53.6328 39.6557 53.43C39.4061 53.2116 39.1097 52.962 38.8601 52.6812C38.5793 52.4316 38.3141 52.1352 38.1113 51.8856C37.8617 51.636 37.7213 51.4488 37.6121 51.3396C37.5029 51.2304 37.3937 51.09 37.3313 50.9808C37.2533 50.8716 37.1909 50.7312 37.0817 50.622C36.9413 50.4816 36.8633 50.3724 36.8321 50.2944C36.9413 50.2632 37.0817 50.2632 37.2689 50.2632C37.3781 50.2632 37.4561 50.2632 37.5185 50.2944C37.5497 50.3256 37.6277 50.3256 37.7369 50.3256H40.9349C41.4341 50.3256 41.9489 50.3256 42.4481 50.2944C42.9161 50.2632 43.4153 50.2632 43.9145 50.2632C44.0237 50.2632 44.1641 50.2632 44.3045 50.2944C44.4137 50.3256 44.5541 50.3256 44.6633 50.3256H44.8505C44.8505 50.3256 44.6633 50.466 44.4917 50.6064C44.3045 50.7936 44.1641 50.856 44.1329 50.856C44.0237 50.9652 43.8833 51.1056 43.7741 51.246C43.6649 51.3864 43.5245 51.4956 43.4153 51.5736C43.1657 51.714 42.9161 51.9012 42.6665 52.1196C42.3857 52.338 42.0893 52.5564 41.8085 52.7592C41.5277 52.9776 41.2313 53.196 40.9817 53.3676L40.9505 53.3832Z" fill="#C30D23"/>
<path d="M35.7088 54.4908C35.5684 54.4908 35.35 54.5688 35.1004 54.678C34.8508 54.8184 34.5544 54.9588 34.2736 55.146C33.9928 55.3332 33.7276 55.536 33.478 55.7232C33.2284 55.9104 33.088 56.0508 33.01 56.16C32.9008 56.2692 32.7916 56.4096 32.7292 56.5188C32.6512 56.628 32.542 56.7684 32.4484 56.8776C32.2612 57.0648 32.0584 57.2364 31.84 57.3456C31.6216 57.4548 31.45 57.5952 31.2628 57.7824C31.1536 57.8916 31.0444 58.0008 30.9352 58.11C30.826 58.2192 30.6856 58.3284 30.5764 58.4376C30.1864 58.6872 29.7808 58.9368 29.4688 59.1552C29.11 59.3736 28.72 59.5452 28.2832 59.7324C28.174 59.7636 28.0024 59.8416 27.7372 59.9508C27.472 60.06 27.3004 60.0912 27.1912 60.0912C26.9416 60.0912 26.614 60.0912 26.2552 60.06C25.8964 60.06 25.5376 60.0288 25.21 59.9196C24.8824 59.8416 24.6016 59.7012 24.352 59.5296C24.1024 59.358 23.9932 59.0616 23.9932 58.734C23.9932 58.3752 24.1024 58.0164 24.3208 57.6576C24.5392 57.2988 24.8668 57.1116 25.2568 57.1116C25.5064 57.1116 25.756 57.1428 26.0056 57.2208C26.224 57.2988 26.4736 57.33 26.7232 57.33C26.9728 57.33 27.2692 57.2988 27.628 57.1896C27.9868 57.0804 28.2676 56.9712 28.4548 56.862C28.642 56.7528 28.8136 56.5812 28.954 56.394C29.0632 56.2068 29.2036 56.0664 29.3908 55.926C29.7184 55.6452 30.0772 55.3488 30.4048 55.0212C30.7324 54.7404 31.0132 54.444 31.3408 54.1164C31.45 54.0072 31.5904 53.898 31.6996 53.8668C31.8088 53.8356 31.918 53.7576 31.9492 53.6796L32.2768 53.352C32.3548 53.2428 32.464 53.1336 32.5576 53.0244C32.7448 52.8372 32.9476 52.6968 33.2752 52.5564C33.556 52.4472 33.8836 52.338 34.2112 52.2288C34.5388 52.1196 34.8508 52.0416 35.1784 52.0104C35.506 51.9792 35.7556 51.9324 35.974 51.9324C37.1596 51.9324 38.1736 52.1508 39.0004 52.572C39.796 53.0088 40.5448 53.6796 41.2936 54.5844C41.4808 54.834 41.6524 55.0524 41.7928 55.302C41.902 55.5516 42.0736 55.77 42.2608 56.0196C42.4012 56.238 42.5884 56.4564 42.76 56.6592C42.9472 56.8776 43.1188 57.0492 43.306 57.2364C43.4932 57.3768 43.6648 57.564 43.8052 57.7356C43.9924 57.9852 44.1952 58.2816 44.3824 58.5312C44.5696 58.812 44.7412 59.0772 44.9596 59.3268C45.2872 59.6544 45.5992 59.9664 45.9736 60.2316C46.3324 60.5124 46.6912 60.8088 47.0188 61.0896C47.4088 61.4484 47.8456 61.776 48.2356 62.1036C48.6256 62.4312 49.0624 62.712 49.5304 63.0084C49.7176 63.1176 49.8892 63.1956 50.0764 63.1956C50.2636 63.2268 50.4664 63.2736 50.6536 63.3828C51.0904 63.6012 51.5896 63.7728 52.1668 63.882C52.7128 63.9912 53.2432 64.1004 53.7112 64.1316C53.9608 64.1628 54.2572 64.2096 54.5068 64.2408C54.7564 64.272 55.0528 64.3188 55.3024 64.3188C55.4116 64.3188 55.5208 64.3188 55.63 64.2876H56.176C56.176 64.2876 56.3164 64.3188 56.3632 64.3968C56.4724 64.4748 56.5504 64.6464 56.5504 64.9428C56.5192 65.2236 56.5192 65.442 56.5504 65.5512C56.5816 65.5824 56.5816 65.6604 56.6284 65.6916C56.6596 65.7696 56.6596 65.832 56.6596 65.8788C56.6596 65.988 56.6284 66.0972 56.5816 66.2064C56.5504 66.3156 56.4724 66.456 56.4412 66.5652C56.254 67.002 56.0044 67.2048 55.7236 67.2516C55.4428 67.2828 55.084 67.3296 54.6784 67.3296C54.3508 67.3296 54.0388 67.2516 53.7112 67.1112C53.3836 67.002 53.1028 66.924 52.8844 66.924C52.8532 66.9552 52.7752 67.002 52.666 66.9552H52.4476C52.4476 66.9552 52.2292 66.924 51.9796 66.846C51.73 66.8148 51.4336 66.7368 51.1528 66.6588C50.872 66.5808 50.6068 66.5184 50.3572 66.4404C50.1076 66.3624 49.9204 66.3312 49.858 66.3C49.7488 66.2688 49.6084 66.1908 49.4992 66.0816C49.39 65.9724 49.2496 65.8944 49.1092 65.8632C48.922 65.832 48.7192 65.754 48.4228 65.6448C48.0952 65.5668 47.9236 65.4576 47.8144 65.3172C47.5648 65.1768 47.3464 65.0364 47.0968 64.9272C46.8472 64.818 46.6288 64.6776 46.4104 64.4904C45.9424 64.1628 45.5056 63.804 45.1156 63.4452C44.6788 63.0864 44.2576 62.6964 43.852 62.2908C43.7428 62.1816 43.6648 62.0724 43.6024 61.9632C43.54 61.854 43.462 61.776 43.3528 61.6824C42.7444 61.074 42.1672 60.3564 41.59 59.5296C41.512 59.4204 41.4808 59.3112 41.4496 59.202C41.4184 59.0928 41.3716 58.9836 41.2624 58.8744C41.0752 58.6248 40.7944 58.266 40.4668 57.798C40.1392 57.3612 39.7804 56.94 39.4216 56.472C39.0316 56.0352 38.6728 55.6452 38.2672 55.2864C37.8772 54.9588 37.5496 54.7404 37.2532 54.6468C36.8944 54.5376 36.5356 54.5064 36.1768 54.5064H35.74L35.7088 54.4908ZM49.5772 60.4968C49.468 60.5748 49.3588 60.606 49.2496 60.606C49.1404 60.6372 49 60.6372 48.8596 60.606H48.5008C48.3916 60.606 48.2824 60.606 48.1732 60.6372C48.064 60.6684 47.9548 60.6684 47.8456 60.6684C47.7676 60.6684 47.7364 60.5904 47.7052 60.45C47.674 60.3408 47.6272 60.2004 47.6272 60.0132C47.596 59.8728 47.596 59.7324 47.596 59.5764C47.5648 59.436 47.5648 59.3268 47.5648 59.2956C47.5336 59.2644 47.5336 59.1552 47.5336 59.046C47.5336 58.7184 47.5648 58.3596 47.6116 58.0008C47.6428 57.6732 47.6896 57.3144 47.6896 56.9868V55.9104C47.6896 55.9104 47.6896 55.77 47.6584 55.7232V55.5048C47.6584 55.5048 47.6272 55.3956 47.6272 55.3176C47.6272 55.1772 47.6584 55.0368 47.7052 54.8496C47.7364 54.6624 47.8456 54.6 48.0328 54.6H48.3604C48.5008 54.6312 48.61 54.6312 48.6412 54.678H49C49.1872 54.7092 49.2808 54.678 49.3588 54.6468H49.5772C49.5772 54.6468 49.6864 54.7248 49.6864 54.834C49.6864 54.8652 49.6864 54.9432 49.6552 55.0212C49.624 55.0992 49.624 55.1616 49.624 55.2084C49.5928 55.2396 49.5928 55.2864 49.5928 55.3956C49.5928 55.6452 49.624 55.8948 49.702 56.1444C49.7332 56.394 49.78 56.6436 49.78 56.8932C49.78 57.2208 49.7488 57.5328 49.702 57.8292C49.6708 58.1568 49.624 58.4688 49.624 58.7964C49.624 59.0148 49.6552 59.2332 49.702 59.4048C49.7332 59.592 49.78 59.8416 49.78 60.1536C49.78 60.294 49.7488 60.4032 49.6396 60.4812L49.5772 60.4968ZM52.1356 60.684C52.1356 60.684 52.0576 60.684 52.0264 60.6528C51.9952 60.6528 51.9484 60.6216 51.9484 60.5436V60.3252C51.9484 60.216 51.9484 60.0756 51.9796 59.9352C52.0108 59.7948 52.0108 59.6544 52.0108 59.5452C52.0108 59.2644 51.9796 58.968 51.9328 58.6872C51.9016 58.4064 51.8548 58.11 51.8548 57.8292C51.8548 57.642 51.886 57.4392 51.9328 57.252C51.964 57.0648 52.0108 56.8932 52.0108 56.706V55.2708C52.0108 55.0212 52.0888 54.8808 52.2292 54.8028C52.3696 54.7716 52.5568 54.7248 52.7284 54.7248H53.7424C53.9296 54.7248 54.0232 54.756 53.992 54.834C53.9608 54.9432 53.9608 55.0524 53.9608 55.1616C53.9608 55.4112 53.992 55.6296 54.0388 55.848C54.07 56.0664 54.07 56.2848 54.07 56.5344V56.8932C54.0388 57.0336 54.0388 57.174 54.0388 57.2832C54.0388 57.3924 54.07 57.5016 54.1168 57.564C54.148 57.6732 54.148 57.7824 54.148 57.8916C54.148 58.032 54.148 58.1724 54.1168 58.2816C54.0856 58.422 54.0856 58.5624 54.0856 58.7184C54.0856 58.9056 54.0856 59.1084 54.1168 59.3268V60.2628C54.1168 60.2628 54.0856 60.4032 53.9764 60.45C53.8672 60.4812 53.7268 60.528 53.6176 60.5592C53.4772 60.5904 53.3368 60.6372 53.2276 60.6684C53.0872 60.6996 52.978 60.6996 52.9468 60.6996H52.1512L52.1356 60.684Z" fill="#C30D23"/>
<path d="M59.3582 51.6204C59.3582 51.6204 59.2178 51.6516 59.0774 51.6516C58.8278 51.6516 58.5782 51.6516 58.3286 51.6204C58.079 51.5892 57.8294 51.5892 57.5798 51.5892C57.3614 51.5892 57.143 51.5892 56.9714 51.6204C56.753 51.6516 56.5346 51.6516 56.3318 51.6516C56.2538 51.6516 56.2226 51.6516 56.1914 51.6204C56.1914 50.9808 56.0822 50.3256 55.8638 49.7172C55.6142 49.1088 55.3178 48.5004 55.0058 47.9544C54.8186 47.6268 54.6158 47.346 54.3662 47.0964L53.5706 46.3008L52.775 45.5052C52.4942 45.2556 52.1978 45.006 51.8702 44.7564H51.683C51.4022 44.4756 51.0746 44.2104 50.7158 43.9608C50.357 43.7424 49.9982 43.524 49.6706 43.3212C49.421 43.1808 49.2026 43.0404 49.031 42.8532C48.8594 42.666 48.641 42.5256 48.3914 42.3852C48.0326 42.1668 47.6738 41.9172 47.315 41.6364C46.925 41.3556 46.5662 41.028 46.2386 40.7004C45.8798 40.3728 45.599 40.014 45.3338 39.624C45.0842 39.234 44.897 38.8284 44.7878 38.4072C44.7566 38.298 44.7098 38.1576 44.6786 37.9704C44.6474 37.7832 44.6006 37.6428 44.6006 37.5336C44.6006 37.206 44.6318 36.894 44.7098 36.5664C44.7878 36.2856 44.819 35.9892 44.8502 35.6616V35.1936C44.8502 35.1936 44.8814 35.0064 44.9594 34.866C45.0374 34.7256 45.0998 34.5852 45.209 34.398C45.3182 34.2576 45.3962 34.1172 45.4898 34.008C45.599 33.8988 45.6302 33.7896 45.677 33.7584C45.7082 33.6804 45.7862 33.618 45.8642 33.54C45.9422 33.5088 46.0046 33.4308 46.0514 33.3528C46.5974 32.526 47.237 31.6992 47.9546 30.8412C48.6722 30.0144 49.499 29.3748 50.4038 28.9068C50.513 28.9068 50.6846 28.7976 50.903 28.5792L51.3398 28.1424C51.449 28.0332 51.5894 27.8928 51.7298 27.7524C51.839 27.6432 51.9794 27.5028 52.1198 27.3936C52.229 27.3156 52.3694 27.2064 52.619 27.0348C52.8686 26.8944 53.087 26.7072 53.3366 26.5356C53.5862 26.3484 53.8046 26.208 53.9762 26.0364C54.1478 25.8648 54.257 25.7556 54.257 25.6464C54.257 25.5372 54.2258 25.428 54.1166 25.3188C54.0074 25.2096 53.9294 25.1316 53.8358 25.0692C53.6954 24.96 53.555 24.8196 53.4458 24.7104C53.3054 24.6012 53.165 24.492 53.0558 24.3516C52.9466 24.2112 52.8062 23.9928 52.6658 23.7432C52.4786 23.4936 52.3382 23.244 52.1978 22.9476C52.0106 22.6668 51.917 22.3704 51.8078 22.0896C51.6986 21.84 51.6206 21.6216 51.6206 21.45C51.6206 21.3408 51.6986 21.2316 51.8078 21.1692C51.839 21.138 51.9482 21.0912 52.1354 21.0288C52.3226 20.9976 52.4942 20.9196 52.7126 20.8416C52.8998 20.7636 53.1026 20.7012 53.2898 20.6544C53.477 20.6232 53.5706 20.5764 53.6174 20.5764C53.7266 20.5764 53.8358 20.6544 53.867 20.7948C53.8982 20.982 53.945 21.0756 53.9762 21.1848C54.1946 21.7308 54.4442 22.23 54.725 22.6512C55.0058 23.0724 55.4426 23.4 56.0198 23.6184C56.207 23.6964 56.4098 23.7588 56.597 23.8056C56.7842 23.8836 56.987 23.9148 57.1742 23.9148C57.3614 23.9148 57.533 23.8836 57.7202 23.7744C57.9074 23.6964 58.079 23.6652 58.2662 23.6652C58.4066 23.6652 58.547 23.7432 58.703 23.8524C58.8434 23.9616 58.9838 24.102 59.1398 24.2424C59.249 24.4296 59.3582 24.57 59.4206 24.7416C59.4986 24.9288 59.5298 25.1004 59.5298 25.2096C59.5298 25.428 59.4518 25.6464 59.2802 25.818C59.093 26.0364 58.8902 26.208 58.6406 26.3952C58.391 26.5824 58.1726 26.7228 57.923 26.8632C57.6734 27.0504 57.455 27.144 57.2834 27.2532C57.1118 27.3624 57.0026 27.4716 56.9246 27.5808C56.8154 27.69 56.675 27.768 56.4878 27.8616C56.0978 28.0488 55.739 28.2516 55.3334 28.4388C54.9434 28.6572 54.5378 28.9068 54.2258 29.1564C54.1166 29.2344 54.0074 29.3436 53.8982 29.4372C53.7578 29.5464 53.6174 29.6868 53.5082 29.796C53.3678 29.9364 53.2274 30.0456 53.1182 30.1548C53.009 30.264 52.8998 30.342 52.8374 30.3732C52.7282 30.4512 52.619 30.5136 52.5098 30.5604C52.4006 30.5916 52.2602 30.7008 52.151 30.81C52.0418 30.9192 51.9638 30.9972 51.9014 31.0908C51.8234 31.2 51.761 31.3092 51.6518 31.4184C51.4646 31.6056 51.293 31.6992 51.0746 31.7772C50.8562 31.8864 50.6846 31.9956 50.4974 32.1672C50.2478 32.4168 49.9202 32.7756 49.5614 33.2124C49.2026 33.6492 48.875 34.1172 48.5474 34.6164C48.2198 35.1156 47.939 35.6304 47.7206 36.1296C47.5022 36.6288 47.393 37.0656 47.393 37.4556L47.4242 37.596C47.6114 37.986 47.861 38.3916 48.173 38.7504C48.5006 39.1092 48.8126 39.4368 49.187 39.7176C49.3742 39.858 49.5458 39.9984 49.733 40.1856C49.9202 40.3728 50.0918 40.5444 50.3102 40.6536C50.4974 40.7628 50.7002 40.872 50.9498 40.9812C51.1682 41.0904 51.3866 41.1996 51.5582 41.3088C51.7298 41.418 51.9482 41.5584 52.1354 41.6988C52.3226 41.8392 52.4942 41.9484 52.7126 42.0264C52.8218 42.0576 52.8998 42.1044 52.9622 42.1356C53.0402 42.1668 53.1026 42.2136 53.2118 42.2448C53.5394 42.432 53.8514 42.6816 54.1166 42.9936C54.3662 43.3212 54.6626 43.602 54.9746 43.7892C55.3022 43.9764 55.583 44.1792 55.9106 44.3664C56.1914 44.5536 56.4566 44.8032 56.7062 45.084C56.8154 45.2244 56.9246 45.3648 57.0338 45.552C57.1118 45.7392 57.221 45.8796 57.3146 46.0512C57.533 46.3788 57.7046 46.6596 57.8918 46.9092C58.0322 47.19 58.2194 47.5176 58.391 47.8452C58.5002 48.0324 58.6094 48.282 58.7498 48.5628C58.859 48.8904 58.9994 49.2024 59.1086 49.53C59.2178 49.8576 59.2958 50.1696 59.3894 50.4972C59.4674 50.8248 59.4986 51.0744 59.4986 51.246C59.4986 51.4176 59.4674 51.5736 59.4206 51.6048L59.3582 51.6204ZM60.0758 34.4448C59.9666 34.4448 59.8886 34.4448 59.8574 34.4136C59.6078 34.4136 59.4206 34.3824 59.3894 34.2732C59.3114 34.164 59.2802 33.9924 59.2802 33.7272C59.3114 33.696 59.3114 33.6492 59.3114 33.5868C59.3426 33.4776 59.3894 33.3996 59.3894 33.3372C59.4206 33.306 59.4206 33.228 59.4674 33.1968C59.4674 33.1656 59.4674 33.1188 59.4986 33.0876C59.4986 33.0096 59.4986 32.9472 59.5298 32.9004C59.4986 32.5728 59.4206 32.292 59.3894 31.9644C59.3582 31.6836 59.3114 31.3872 59.3114 31.0596C59.3114 30.8412 59.3114 30.6228 59.3426 30.42C59.3738 30.2328 59.3738 30.03 59.3738 29.8116V29.3748C59.3426 29.2656 59.3426 29.1252 59.3426 29.016C59.3426 28.7664 59.4206 28.626 59.5922 28.5792C59.7794 28.548 59.951 28.548 60.1382 28.548H60.419C60.887 28.548 61.1678 28.6572 61.277 28.9068C61.355 29.1564 61.3862 29.5152 61.3862 29.9208V31.356L61.277 31.4964C61.3082 31.6836 61.355 31.8864 61.355 32.0736V33.8364C61.355 33.8364 61.355 33.9768 61.3238 34.086C61.2926 34.2264 61.2146 34.3044 61.1834 34.3356C61.1522 34.3668 61.1054 34.4136 61.043 34.4136C60.965 34.4448 60.9026 34.4448 60.8558 34.4448H60.0602H60.0758ZM64.8962 34.5072C64.787 34.5072 64.6778 34.5072 64.5686 34.5384C64.4594 34.5696 64.3502 34.5696 64.241 34.5696C64.0226 34.5696 63.9134 34.4916 63.8822 34.3824C63.851 34.2732 63.851 34.1328 63.851 33.9456C63.851 33.618 63.851 33.3372 63.8822 33.0096V32.1048C63.8822 31.9176 63.8822 31.7148 63.9134 31.5276C63.9446 31.3404 63.9446 31.1376 63.9446 30.9504C63.9446 30.732 63.9446 30.5136 63.9134 30.342C63.8822 30.1548 63.8354 29.952 63.8354 29.7336C63.8354 29.6556 63.8354 29.5464 63.8666 29.4528C63.8666 29.3436 63.8666 29.2032 63.8978 29.094C63.929 28.9848 63.9758 28.8756 64.007 28.7664C64.0382 28.6572 64.1162 28.626 64.2254 28.626H64.4126C64.4126 28.626 64.5218 28.6572 64.553 28.6572C64.5842 28.6884 64.6622 28.6884 64.7402 28.6884H65.099C65.099 28.6884 65.2082 28.6884 65.2862 28.6572H65.4266C65.567 28.6572 65.6762 28.7664 65.7854 28.9848C65.8634 29.2032 65.9258 29.4528 65.9726 29.7336C66.0038 30.0144 66.0038 30.3108 66.0038 30.5604V32.3232C66.0038 32.4636 65.9726 32.5728 65.9258 32.682C65.8478 32.7912 65.8166 32.9316 65.8166 33.072C65.8166 33.2592 65.8478 33.3996 65.8946 33.54C65.9258 33.6804 65.9726 33.8208 65.9726 34.008V34.3668C65.9726 34.3668 65.8634 34.476 65.6918 34.476H64.8962V34.5072Z" fill="#C30D23"/>
<path d="M106.548 60.4032C106.548 60.7152 106.486 60.996 106.377 61.23C106.252 61.464 106.096 61.6668 105.893 61.8228C105.69 61.9788 105.456 62.1036 105.191 62.1816C104.926 62.2596 104.63 62.3064 104.333 62.3064C104.13 62.3064 103.928 62.2908 103.756 62.2596C103.584 62.2284 103.413 62.1816 103.288 62.1348C103.148 62.088 103.038 62.0412 102.945 61.9788C102.851 61.932 102.789 61.8852 102.742 61.8384C102.695 61.7916 102.68 61.7448 102.648 61.6668C102.633 61.5888 102.617 61.4796 102.617 61.3392C102.617 61.2456 102.617 61.1676 102.617 61.0896C102.617 61.0272 102.633 60.9648 102.648 60.9336C102.664 60.9024 102.68 60.8712 102.711 60.84C102.742 60.8088 102.758 60.8088 102.789 60.8088C102.836 60.8088 102.898 60.84 102.976 60.8868C103.054 60.9336 103.163 60.996 103.288 61.0584C103.413 61.1208 103.553 61.1832 103.725 61.23C103.896 61.2768 104.099 61.308 104.318 61.308C104.474 61.308 104.598 61.2924 104.723 61.2612C104.848 61.23 104.942 61.1676 105.02 61.1052C105.098 61.0428 105.16 60.9648 105.207 60.8556C105.254 60.762 105.269 60.6528 105.269 60.528C105.269 60.3876 105.238 60.2784 105.16 60.1692C105.082 60.06 104.988 59.982 104.864 59.904C104.739 59.826 104.614 59.7636 104.458 59.6856C104.302 59.6232 104.146 59.5452 103.99 59.4672C103.834 59.3892 103.678 59.3112 103.522 59.2176C103.366 59.124 103.241 59.0148 103.116 58.8744C102.992 58.7496 102.898 58.5936 102.82 58.4064C102.742 58.2192 102.711 58.0164 102.711 57.7668C102.711 57.486 102.758 57.2208 102.867 57.0024C102.976 56.784 103.116 56.5968 103.304 56.4564C103.491 56.316 103.694 56.2068 103.943 56.1288C104.193 56.0508 104.458 56.0196 104.723 56.0196C104.864 56.0196 105.004 56.0196 105.144 56.0508C105.285 56.0664 105.425 56.0976 105.55 56.1444C105.675 56.1756 105.784 56.2224 105.878 56.2692C105.971 56.316 106.034 56.3472 106.065 56.3784C106.096 56.4096 106.112 56.4408 106.127 56.4564C106.127 56.472 106.143 56.5032 106.158 56.55C106.158 56.5812 106.158 56.628 106.174 56.6904C106.174 56.7372 106.174 56.8152 106.174 56.8932C106.174 56.9868 106.174 57.0648 106.174 57.1272C106.174 57.1896 106.174 57.2364 106.158 57.2832C106.158 57.33 106.127 57.3456 106.112 57.3768C106.096 57.3924 106.065 57.408 106.034 57.408C106.002 57.408 105.94 57.3924 105.878 57.3456C105.815 57.2988 105.706 57.252 105.597 57.2052C105.488 57.1584 105.363 57.1116 105.222 57.0648C105.082 57.018 104.926 57.0024 104.754 57.0024C104.614 57.0024 104.505 57.018 104.411 57.0492C104.318 57.0804 104.224 57.1272 104.162 57.1896C104.099 57.252 104.052 57.3144 104.006 57.3924C103.959 57.4704 103.959 57.564 103.959 57.642C103.959 57.7824 103.99 57.8916 104.068 57.9852C104.146 58.0788 104.24 58.1724 104.364 58.2504C104.489 58.3284 104.63 58.3908 104.786 58.4688C104.942 58.5312 105.098 58.6092 105.254 58.6872C105.41 58.7652 105.566 58.8432 105.722 58.9368C105.878 59.0304 106.018 59.1396 106.143 59.28C106.268 59.4204 106.361 59.5608 106.439 59.748C106.517 59.9352 106.548 60.138 106.548 60.372V60.4032Z" fill="#231815"/>
<path d="M119.2 59.9664C119.2 60.3408 119.138 60.6684 119.044 60.9648C118.935 61.2612 118.779 61.5108 118.561 61.698C118.342 61.9008 118.093 62.0568 117.781 62.166C117.469 62.2752 117.11 62.322 116.704 62.322C116.33 62.322 115.987 62.2752 115.69 62.1816C115.394 62.088 115.129 61.9476 114.926 61.7448C114.723 61.5576 114.551 61.308 114.442 61.0272C114.333 60.7464 114.271 60.4032 114.271 60.0132V56.3472C114.271 56.3472 114.271 56.2848 114.302 56.2692C114.333 56.2536 114.349 56.2224 114.395 56.2068C114.442 56.2068 114.505 56.1756 114.583 56.1756C114.661 56.1756 114.754 56.1756 114.879 56.1756C115.004 56.1756 115.097 56.1756 115.175 56.1756C115.253 56.1756 115.316 56.1912 115.363 56.2068C115.409 56.2224 115.441 56.238 115.456 56.2692C115.472 56.3004 115.487 56.316 115.487 56.3472V59.904C115.487 60.138 115.519 60.3564 115.581 60.528C115.643 60.6996 115.721 60.8556 115.831 60.9648C115.94 61.074 116.08 61.1676 116.221 61.23C116.361 61.2924 116.548 61.3236 116.735 61.3236C116.923 61.3236 117.094 61.2924 117.25 61.23C117.406 61.1676 117.531 61.0896 117.64 60.9648C117.749 60.8556 117.827 60.7152 117.89 60.5436C117.952 60.372 117.983 60.1848 117.983 59.982V56.3628C117.983 56.3628 117.983 56.3004 118.015 56.2848C118.046 56.2692 118.061 56.238 118.108 56.2224C118.155 56.2068 118.217 56.1912 118.295 56.1912C118.373 56.1912 118.467 56.1912 118.592 56.1912C118.717 56.1912 118.81 56.1912 118.888 56.1912C118.966 56.1912 119.029 56.2068 119.075 56.2224C119.122 56.238 119.153 56.2536 119.169 56.2848C119.185 56.316 119.2 56.3316 119.2 56.3628V59.9664Z" fill="#231815"/>
<path d="M132.148 57.1116C132.148 57.2052 132.148 57.2832 132.148 57.3456C132.148 57.408 132.132 57.4704 132.117 57.5016C132.101 57.5328 132.086 57.564 132.07 57.5796C132.054 57.5796 132.023 57.5952 131.992 57.5952C131.945 57.5952 131.883 57.564 131.789 57.5172C131.696 57.4548 131.586 57.408 131.43 57.33C131.274 57.252 131.103 57.2052 130.9 57.1428C130.697 57.0804 130.448 57.0648 130.182 57.0648C129.886 57.0648 129.621 57.1116 129.387 57.2208C129.153 57.3144 128.95 57.4704 128.778 57.642C128.607 57.8136 128.482 58.0476 128.388 58.3128C128.295 58.578 128.248 58.8588 128.248 59.1708C128.248 59.514 128.295 59.826 128.388 60.0756C128.482 60.3408 128.607 60.5592 128.778 60.7308C128.95 60.9024 129.137 61.0428 129.371 61.1364C129.605 61.23 129.855 61.2768 130.136 61.2768C130.276 61.2768 130.401 61.2768 130.541 61.23C130.682 61.1988 130.806 61.152 130.916 61.0896V59.7012H129.777C129.777 59.7012 129.683 59.67 129.652 59.592C129.621 59.5296 129.605 59.4048 129.605 59.2332C129.605 59.1396 129.605 59.0772 129.605 59.0148C129.605 58.9524 129.621 58.9056 129.636 58.8744C129.652 58.8432 129.668 58.812 129.699 58.7964C129.714 58.7808 129.746 58.7652 129.777 58.7652H131.805C131.805 58.7652 131.898 58.7652 131.945 58.7964C131.976 58.812 132.023 58.8432 132.054 58.8744C132.086 58.9056 132.101 58.9524 132.117 58.9992C132.132 59.046 132.132 59.1084 132.132 59.1708V61.5732C132.132 61.6668 132.117 61.7448 132.086 61.8228C132.054 61.9008 131.992 61.9476 131.883 61.9944C131.774 62.0412 131.664 62.0724 131.508 62.1192C131.352 62.166 131.212 62.1972 131.04 62.2284C130.884 62.2596 130.713 62.2752 130.557 62.2908C130.401 62.3064 130.229 62.3064 130.058 62.3064C129.574 62.3064 129.153 62.244 128.763 62.1036C128.388 61.9632 128.061 61.7604 127.796 61.5108C127.53 61.2456 127.328 60.9336 127.187 60.5592C127.047 60.1848 126.984 59.748 126.984 59.28C126.984 58.812 127.062 58.344 127.203 57.954C127.343 57.564 127.562 57.2208 127.842 56.9556C128.123 56.6748 128.451 56.472 128.825 56.3316C129.2 56.1912 129.636 56.1132 130.12 56.1132C130.385 56.1132 130.619 56.1288 130.838 56.16C131.056 56.1912 131.243 56.238 131.399 56.2848C131.555 56.3316 131.696 56.394 131.789 56.4564C131.898 56.5188 131.976 56.5656 132.008 56.6124C132.054 56.6592 132.086 56.7216 132.101 56.7996C132.117 56.8776 132.132 57.0024 132.132 57.1584L132.148 57.1116Z" fill="#231815"/>
<path d="M145.096 59.9664C145.096 60.3408 145.049 60.6684 144.94 60.9648C144.83 61.2612 144.674 61.5108 144.456 61.698C144.253 61.9008 143.988 62.0568 143.676 62.166C143.364 62.2752 143.005 62.322 142.6 62.322C142.225 62.322 141.882 62.2752 141.586 62.1816C141.289 62.088 141.024 61.9476 140.821 61.7448C140.618 61.5576 140.447 61.308 140.338 61.0272C140.228 60.7464 140.166 60.4032 140.166 60.0132V56.3472C140.166 56.3472 140.166 56.2848 140.197 56.2692C140.228 56.2536 140.244 56.2224 140.291 56.2068C140.338 56.2068 140.4 56.1756 140.478 56.1756C140.556 56.1756 140.65 56.1756 140.774 56.1756C140.899 56.1756 140.993 56.1756 141.071 56.1756C141.149 56.1756 141.211 56.1912 141.258 56.2068C141.305 56.2224 141.336 56.238 141.352 56.2692C141.367 56.3004 141.383 56.316 141.383 56.3472V59.904C141.383 60.138 141.414 60.3564 141.476 60.528C141.539 60.6996 141.617 60.8556 141.726 60.9648C141.835 61.074 141.976 61.1676 142.116 61.23C142.256 61.2924 142.444 61.3236 142.631 61.3236C142.818 61.3236 142.99 61.2924 143.146 61.23C143.302 61.1676 143.426 61.0896 143.536 60.9648C143.645 60.8556 143.723 60.7152 143.785 60.5436C143.848 60.372 143.863 60.1848 143.863 59.982V56.3628C143.863 56.3628 143.863 56.3004 143.894 56.2848C143.926 56.2692 143.941 56.238 143.988 56.2224C144.035 56.2068 144.097 56.1912 144.175 56.1912C144.253 56.1912 144.347 56.1912 144.472 56.1912C144.596 56.1912 144.69 56.1912 144.768 56.1912C144.846 56.1912 144.908 56.2068 144.955 56.2224C145.002 56.238 145.033 56.2536 145.049 56.2848C145.064 56.316 145.08 56.3316 145.08 56.3628V59.9664H145.096Z" fill="#231815"/>
<path d="M166.109 56.6904C166.109 56.784 166.109 56.862 166.109 56.9244C166.109 56.9868 166.093 57.0336 166.078 57.0804C166.078 57.1116 166.046 57.1428 166.015 57.174C165.984 57.1896 165.968 57.2052 165.937 57.2052H164.424V62.0568C164.424 62.0568 164.424 62.1192 164.393 62.1348C164.377 62.166 164.346 62.1816 164.299 62.1972C164.252 62.2128 164.19 62.2284 164.112 62.2284C164.034 62.2284 163.94 62.2284 163.816 62.2284C163.691 62.2284 163.597 62.2284 163.519 62.2284C163.441 62.2284 163.379 62.2128 163.332 62.1972C163.285 62.1816 163.254 62.166 163.238 62.1348C163.223 62.1036 163.207 62.088 163.207 62.0568V57.2052H161.694C161.694 57.2052 161.632 57.2052 161.616 57.174C161.6 57.1584 161.569 57.1272 161.554 57.0804C161.554 57.0492 161.522 56.9868 161.522 56.9244C161.522 56.862 161.522 56.784 161.522 56.6904C161.522 56.5968 161.522 56.5188 161.522 56.4564C161.522 56.394 161.538 56.3316 161.554 56.3004C161.569 56.2692 161.585 56.238 161.616 56.2224C161.632 56.2068 161.663 56.1912 161.694 56.1912H165.937C165.937 56.1912 165.984 56.1912 166.015 56.2224C166.031 56.238 166.062 56.2692 166.078 56.3004C166.093 56.3316 166.109 56.394 166.109 56.4564C166.109 56.5188 166.109 56.5968 166.109 56.6904Z" fill="#231815"/>
<path d="M178.059 61.7448C178.09 61.854 178.121 61.9476 178.121 62.01C178.121 62.0724 178.121 62.1192 178.09 62.1504C178.059 62.1816 177.996 62.1972 177.903 62.2128C177.809 62.2284 177.7 62.2128 177.544 62.2128C177.388 62.2128 177.263 62.2128 177.17 62.2128C177.076 62.2128 177.014 62.2128 176.967 62.1816C176.92 62.1504 176.889 62.1504 176.873 62.1192C176.858 62.088 176.842 62.0568 176.826 62.0256L176.421 60.8088H174.159L173.784 61.9788C173.784 61.9788 173.753 62.0568 173.738 62.088C173.722 62.1192 173.691 62.1348 173.644 62.1504C173.597 62.166 173.535 62.1816 173.457 62.1816C173.379 62.1816 173.27 62.1816 173.129 62.1816C172.989 62.1816 172.88 62.1816 172.802 62.1816C172.724 62.1816 172.661 62.1504 172.63 62.1192C172.599 62.088 172.583 62.0256 172.599 61.9632C172.614 61.9008 172.63 61.8072 172.661 61.698L174.518 56.3628C174.518 56.3628 174.564 56.2692 174.58 56.238C174.596 56.2068 174.642 56.1756 174.705 56.16C174.752 56.1444 174.83 56.1288 174.923 56.1288C175.017 56.1288 175.142 56.1288 175.298 56.1288C175.485 56.1288 175.625 56.1288 175.734 56.1288C175.844 56.1288 175.922 56.1288 175.984 56.16C176.046 56.1756 176.093 56.2068 176.109 56.238C176.14 56.2692 176.156 56.316 176.171 56.3784L178.028 61.7136L178.059 61.7448ZM175.298 57.33L174.44 59.8884H176.14L175.282 57.33H175.298Z" fill="#231815"/>
<path d="M190.087 60.4032C190.087 60.6216 190.056 60.8088 189.993 60.9804C189.931 61.152 189.853 61.308 189.743 61.4484C189.634 61.5888 189.51 61.698 189.369 61.7916C189.229 61.8852 189.073 61.9632 188.886 62.0256C188.714 62.088 188.527 62.1348 188.324 62.166C188.121 62.1972 187.903 62.2128 187.669 62.2128H186.062C185.953 62.2128 185.875 62.1816 185.797 62.1192C185.719 62.0568 185.688 61.9632 185.688 61.8228V56.5656C185.688 56.4252 185.719 56.3316 185.797 56.2692C185.859 56.2068 185.953 56.1756 186.062 56.1756H187.575C187.949 56.1756 188.261 56.2068 188.511 56.2692C188.761 56.3316 188.979 56.4252 189.151 56.55C189.322 56.6748 189.463 56.8308 189.556 57.0336C189.65 57.2364 189.697 57.4548 189.697 57.72C189.697 57.8604 189.681 58.0008 189.634 58.1256C189.587 58.2504 189.541 58.3752 189.478 58.4844C189.416 58.5936 189.322 58.6872 189.213 58.7652C189.104 58.8432 188.995 58.9056 188.854 58.968C189.026 58.9992 189.182 59.046 189.322 59.124C189.463 59.202 189.587 59.2956 189.697 59.4204C189.806 59.5452 189.884 59.6856 189.946 59.8572C190.009 60.0288 190.04 60.2004 190.04 60.4032H190.087ZM188.511 57.8604C188.511 57.7356 188.496 57.6264 188.449 57.5328C188.402 57.4392 188.355 57.3612 188.277 57.2988C188.199 57.2364 188.106 57.1896 187.996 57.1584C187.887 57.1272 187.731 57.1116 187.544 57.1116H186.92V58.6716H187.606C187.778 58.6716 187.918 58.656 188.027 58.6092C188.137 58.5624 188.215 58.5156 188.293 58.4376C188.355 58.3596 188.418 58.2816 188.449 58.188C188.48 58.0944 188.496 57.9852 188.496 57.876L188.511 57.8604ZM188.823 60.4344C188.823 60.294 188.808 60.1692 188.761 60.06C188.714 59.9508 188.652 59.8572 188.558 59.7792C188.464 59.7012 188.355 59.6544 188.215 59.6076C188.074 59.5608 187.887 59.5452 187.669 59.5452H186.936V61.2612H187.825C187.996 61.2612 188.137 61.2456 188.262 61.2144C188.371 61.1832 188.48 61.1208 188.558 61.0584C188.636 60.996 188.714 60.9024 188.761 60.7932C188.808 60.684 188.839 60.5748 188.839 60.4344H188.823Z" fill="#231815"/>
<path d="M201.475 61.7292C201.475 61.8228 201.475 61.9008 201.475 61.9476C201.475 62.01 201.459 62.0568 201.444 62.088C201.428 62.1192 201.412 62.1504 201.381 62.166C201.35 62.1816 201.334 62.1972 201.303 62.1972H198.277C198.168 62.1972 198.09 62.166 198.012 62.1036C197.934 62.0412 197.902 61.9476 197.902 61.8072V56.55C197.902 56.4096 197.934 56.316 198.012 56.2536C198.074 56.1912 198.168 56.16 198.277 56.16H201.288C201.288 56.16 201.334 56.16 201.366 56.1756C201.397 56.1912 201.412 56.2224 201.428 56.2536C201.444 56.2848 201.459 56.3472 201.459 56.4096C201.459 56.472 201.459 56.55 201.459 56.6436C201.459 56.7372 201.459 56.7996 201.459 56.862C201.459 56.9244 201.444 56.9712 201.428 57.0024C201.412 57.0336 201.397 57.0648 201.366 57.0804C201.334 57.096 201.319 57.1116 201.288 57.1116H199.135V58.578H200.96C200.96 58.578 201.007 58.578 201.038 58.6092C201.069 58.6248 201.085 58.656 201.1 58.6872C201.116 58.7184 201.132 58.7652 201.132 58.8276C201.132 58.89 201.132 58.968 201.132 59.046C201.132 59.124 201.132 59.2176 201.132 59.2644C201.132 59.3268 201.116 59.3736 201.1 59.4048C201.085 59.436 201.069 59.4672 201.038 59.4828C201.022 59.4828 200.991 59.4984 200.96 59.4984H199.135V61.1988H201.303C201.303 61.1988 201.35 61.1988 201.381 61.23C201.397 61.2456 201.428 61.2768 201.444 61.308C201.459 61.3392 201.475 61.4016 201.475 61.4484C201.475 61.5108 201.475 61.5888 201.475 61.6668V61.7292Z" fill="#231815"/>
<path d="M37.97 72.618C19.5932 72.618 4.64844 57.6732 4.64844 39.2964C4.64844 20.9196 19.5932 5.97479 37.97 5.97479C56.3468 5.97479 71.2916 20.9196 71.2916 39.2964C71.2916 57.6732 56.3468 72.618 37.97 72.618ZM37.97 8.82959C21.1688 8.82959 7.50324 22.4952 7.50324 39.2964C7.50324 56.0976 21.1688 69.7632 37.97 69.7632C54.7712 69.7632 68.4368 56.0976 68.4368 39.2964C68.4368 22.4952 54.7712 8.82959 37.97 8.82959Z" fill="#C30D23"/>
</svg>
